<svg width="30" height="30" viewBox="0 0 30 30" fill="none" xmlns="http://www.w3.org/2000/svg">
<path d="M13.125 3.75C12.6277 3.75 12.1508 3.94755 11.7992 4.29918C11.4475 4.65081 11.25 5.12772 11.25 5.625V5.68407L6.50344 8.67188C6.23429 8.52287 5.93261 8.44238 5.625 8.4375C5.12772 8.4375 4.65081 8.63505 4.29917 8.98668C3.94754 9.33831 3.75 9.81522 3.75 10.3125C3.75 11.0044 4.12688 11.5978 4.6875 11.9241V22.7625C4.12688 23.0888 3.75 23.6813 3.75 24.3741C3.75 24.8713 3.94754 25.3483 4.29917 25.6999C4.65081 26.0515 5.12772 26.2491 5.625 26.2491C6.31687 26.2491 6.91031 25.8722 7.23656 25.3116H19.0125C19.3388 25.8722 19.9312 26.2491 20.6241 26.2491C21.1213 26.2491 21.5983 26.0515 21.9499 25.6999C22.3015 25.3483 22.4991 24.8713 22.4991 24.3741C22.4991 24.0009 22.3959 23.6419 22.2056 23.3484L24.4922 18.75C24.948 18.72 25.3772 18.5251 25.6997 18.2016C26.0223 17.8782 26.216 17.4484 26.2447 16.9925C26.2734 16.5367 26.1351 16.086 25.8558 15.7246C25.5764 15.3633 25.175 15.116 24.7266 15.0291L22.9397 9.66844C23.2359 9.33469 23.4375 8.91657 23.4375 8.4375C23.4375 7.94022 23.24 7.46331 22.8883 7.11168C22.5367 6.76005 22.0598 6.5625 21.5625 6.5625C21.0825 6.5625 20.6653 6.76407 20.3316 7.06032L14.9719 5.24438C14.8823 4.82114 14.6499 4.44159 14.3136 4.16948C13.9773 3.89736 13.5576 3.74925 13.125 3.75ZM14.3559 7.03125L19.7166 8.78907C19.86 9.54375 20.4572 10.14 21.2109 10.2834L22.9978 15.615C22.6806 15.9583 22.5031 16.4076 22.5 16.875C22.5 17.2631 22.6209 17.6297 22.8225 17.9297L20.5078 22.5C20.2007 22.5209 19.9036 22.6174 19.6428 22.781C19.3821 22.9445 19.1659 23.1701 19.0134 23.4375H7.2375C7.07437 23.1584 6.84185 22.9262 6.5625 22.7634V11.925C7.12313 11.5988 7.5 11.0063 7.5 10.3134V10.2544L12.2466 7.26657C12.5091 7.40532 12.8062 7.50094 13.125 7.50094C13.5975 7.50094 14.025 7.32094 14.3559 7.03125Z" fill="#641698"/>
</svg>
