<svg width="25" height="25" viewBox="0 0 25 25" fill="none" xmlns="http://www.w3.org/2000/svg">
<g clip-path="url(#clip0_50_2009)">
<path d="M3.1375 3.75C1.4155 3.75 0 5.16525 0 6.8875C0 8.39175 1.07925 9.6615 2.5 9.959V15.066C1.07925 15.3635 0 16.6335 0 18.1378C0 19.86 1.41525 21.275 3.1375 21.275C4.64925 21.275 5.91 20.1815 6.19775 18.75H18.8115C19.0995 20.183 20.3748 21.275 21.8878 21.275C23.5503 21.275 24.914 19.953 25.0072 18.312C25.0189 18.2546 25.0248 18.1963 25.0247 18.1378C25.0248 18.0792 25.0189 18.0209 25.0072 17.9635C24.9258 16.5292 23.8738 15.339 22.5 15.0615V9.9635C23.8738 9.686 24.9257 8.496 25.0075 7.062C25.0191 7.00465 25.025 6.94627 25.025 6.88775C25.025 6.82923 25.0191 6.77085 25.0075 6.7135C24.9137 5.0725 23.5503 3.75 21.8875 3.75C20.3835 3.75 19.1135 4.82925 18.816 6.25H6.1925C5.895 4.831 4.64025 3.75 3.1375 3.75ZM3.1375 5.5C3.91425 5.5 4.525 6.111 4.525 6.8875C4.525 7.66425 3.91425 8.275 3.1375 8.275C2.36075 8.275 1.75 7.66425 1.75 6.8875C1.75 6.11075 2.361 5.5 3.1375 5.5ZM21.8875 5.5C22.6643 5.5 23.275 6.111 23.275 6.8875C23.275 7.66425 22.6643 8.275 21.8875 8.275C21.1108 8.275 20.5 7.66425 20.5 6.8875C20.5 6.11075 21.111 5.5 21.8875 5.5ZM6.0545 8H18.9595C19.1171 8.40838 19.3575 8.7797 19.6657 9.09056C19.9738 9.40143 20.343 9.64511 20.75 9.80625V15.2188C20.3471 15.3782 19.9812 15.6185 19.6748 15.9248C19.3685 16.2312 19.1282 16.5971 18.9688 17H6.04375C5.88453 16.5939 5.64295 16.2252 5.33424 15.917C5.02554 15.6089 4.65637 15.368 4.25 15.2095V9.8155C4.66073 9.65547 5.03344 9.41127 5.34417 9.0986C5.6549 8.78594 5.89677 8.41172 6.05425 8M3.1375 16.75C3.914 16.75 4.52475 17.361 4.52475 18.1375C4.52475 18.9143 3.914 19.525 3.13725 19.525C2.3605 19.525 1.75 18.9143 1.75 18.1375C1.75 17.3608 2.361 16.75 3.1375 16.75ZM21.8875 16.75C22.664 16.75 23.2747 17.361 23.2747 18.1375C23.2747 18.9143 22.664 19.525 21.8873 19.525C21.1105 19.525 20.5 18.9143 20.5 18.1375C20.5 17.3608 21.111 16.75 21.8875 16.75Z" fill="#FF6F61"/>
</g>
<defs>
<clipPath id="clip0_50_2009">
<rect width="25" height="25" fill="white"/>
</clipPath>
</defs>
</svg>
