<svg width="30" height="30" viewBox="0 0 30 30" fill="none" xmlns="http://www.w3.org/2000/svg">
<path d="M18.9233 22.9596H22.4761C23.0103 22.9596 23.5037 23.0965 23.7606 23.316L26.817 25.9422C27.3513 26.3992 26.6448 26.9596 25.5326 26.9596H4.46416C3.35192 26.9596 2.64837 26.4018 3.17968 25.9422L6.23616 23.316C6.49306 23.0965 6.98349 22.9596 7.52064 22.9596H10.9595" stroke="white" stroke-width="2" stroke-miterlimit="10"/>
<path d="M14.999 13.9596C17.2081 13.9596 18.999 12.1687 18.999 9.95959C18.999 7.75046 17.2081 5.95959 14.999 5.95959C12.7898 5.95959 10.999 7.75046 10.999 9.95959C10.999 12.1687 12.7898 13.9596 14.999 13.9596Z" fill="white"/>
<path d="M21.999 10.1375C21.999 14.1018 14.999 23.9596 14.999 23.9596C14.999 23.9596 7.99896 14.1018 7.99896 10.1375C7.99896 6.17324 11.133 2.95959 14.999 2.95959C18.865 2.95959 21.999 6.17324 21.999 10.1375Z" stroke="white" stroke-width="2" stroke-miterlimit="10"/>
</svg>
