<svg width="30" height="30" viewBox="0 0 30 30" fill="none" xmlns="http://www.w3.org/2000/svg">
<path d="M15.0007 2.1875C15.7942 2.1875 16.5755 2.39007 17.2688 2.77588L17.2676 2.7771L24.7139 6.90918L24.7151 6.9104L24.9824 7.07031C25.5909 7.46495 26.1 7.99727 26.468 8.62549C26.8883 9.34291 27.1093 10.1598 27.1077 10.9912V19.0063L27.0979 19.3176C27.0514 20.0416 26.8361 20.746 26.468 21.3745C26.0474 22.0929 25.4422 22.6855 24.7151 23.0908L24.7139 23.092L17.2676 27.2229L17.2688 27.2241C16.5755 27.6099 15.7942 27.8125 15.0007 27.8125C14.2075 27.8124 13.4271 27.6098 12.7339 27.2241V27.2229L5.28883 23.0908L5.28761 23.0896C4.56074 22.6844 3.95535 22.0925 3.53468 21.3745C3.11401 20.6564 2.89305 19.8386 2.89503 19.0063V10.9912C2.89323 10.1597 3.11448 9.3431 3.53468 8.62549C3.95536 7.90711 4.56047 7.31453 5.28761 6.90918L5.28883 6.90796L12.7327 2.77588L12.9451 2.65747H12.9622C13.5964 2.349 14.2933 2.18758 15.0007 2.1875ZM15.0007 4.0625C14.5266 4.06259 14.0601 4.1835 13.6458 4.41406L13.4334 4.53247H13.4285L6.19948 8.54492L6.2007 8.54614C5.76597 8.78848 5.40362 9.14327 5.15211 9.57275C4.90068 10.0022 4.76868 10.4911 4.77003 10.9888V19.0112C4.76889 19.5087 4.90065 19.998 5.15211 20.4272C5.40323 20.8558 5.76465 21.2092 6.19826 21.4514L13.6445 25.5859H13.6458C14.0601 25.8165 14.5266 25.9374 15.0007 25.9375C15.4751 25.9375 15.9424 25.8166 16.3569 25.5859L16.3582 25.5847L23.8045 21.4526C24.2383 21.2103 24.5995 20.8561 24.8506 20.4272C25.102 19.9978 25.234 19.5088 25.2327 19.0112V10.9888L25.2266 10.8032C25.1987 10.3704 25.0707 9.94848 24.8506 9.57275C24.5992 9.14377 24.2375 8.78956 23.8032 8.54736V8.54858L16.3569 4.41406C15.9424 4.18341 15.4751 4.0625 15.0007 4.0625Z" fill="#734199"/>
<path d="M25.4128 8.745L25.895 9.54822L15.9377 15.5284V26.8627H14.0627V15.5297L4.10547 9.54822L5.06982 7.94177L14.999 13.9061L24.9294 7.94177L25.4128 8.745Z" fill="#734199"/>
</svg>
