<svg width="275" height="54" viewBox="0 0 275 54" fill="none" xmlns="http://www.w3.org/2000/svg">
<g clip-path="url(#clip0_2_16)">
<path fill-rule="evenodd" clip-rule="evenodd" d="M46.59 13.45V24.28H33.18V21.2L46.59 13.46V13.45Z" fill="#803AAA"/>
<path opacity="0.9" fill-rule="evenodd" clip-rule="evenodd" d="M46.59 13.45L33.18 21.19L23.29 15.48V0L46.59 13.45Z" fill="#672C90"/>
<path opacity="0.8" fill-rule="evenodd" clip-rule="evenodd" d="M23.3 0V15.49L13.42 21.2L0 13.45L23.3 0Z" fill="#672C90"/>
<path opacity="0.7" fill-rule="evenodd" clip-rule="evenodd" d="M13.41 21.19V32.6L0 40.35V13.45L13.41 21.19Z" fill="#672C90"/>
<path opacity="0.6" fill-rule="evenodd" clip-rule="evenodd" d="M23.29 38.32V53.8L0 40.35L13.41 32.61L23.29 38.32Z" fill="#672C90"/>
<path opacity="0.5" fill-rule="evenodd" clip-rule="evenodd" d="M46.59 40.35L23.29 53.8V38.32L33.18 32.61L46.59 40.35Z" fill="#672C90"/>
<path opacity="0.4" fill-rule="evenodd" clip-rule="evenodd" d="M46.59 29.52V40.35L33.18 32.61V29.53H46.59V29.52Z" fill="#672C90"/>
<path d="M77.98 44.13C76.21 44.13 74.52 43.85 72.89 43.3C71.27 42.74 69.84 41.94 68.63 40.9C67.41 39.86 66.53 38.6 66 37.14L71.24 35.22C71.45 35.83 71.89 36.39 72.54 36.89C73.2 37.39 74 37.8 74.94 38.1C75.89 38.41 76.9 38.56 77.98 38.56C79.06 38.56 80.13 38.39 81.1 38.05C82.07 37.71 82.85 37.23 83.44 36.61C84.03 35.99 84.33 35.27 84.33 34.45C84.33 33.63 84.02 32.92 83.39 32.38C82.76 31.84 81.96 31.41 80.99 31.09C80.01 30.77 79.01 30.53 77.97 30.36C75.7 30.01 73.66 29.47 71.87 28.74C70.07 28.01 68.65 26.99 67.61 25.7C66.57 24.4 66.04 22.73 66.04 20.67C66.04 18.73 66.6 17.04 67.71 15.59C68.82 14.14 70.29 13.01 72.1 12.21C73.91 11.4 75.87 11 77.98 11C79.73 11 81.42 11.27 83.06 11.82C84.69 12.37 86.12 13.17 87.35 14.22C88.58 15.27 89.46 16.54 89.99 18.02L84.73 19.92C84.52 19.31 84.08 18.75 83.43 18.25C82.77 17.75 81.97 17.35 81.03 17.05C80.08 16.75 79.07 16.6 77.99 16.6C76.91 16.58 75.88 16.76 74.91 17.11C73.94 17.47 73.15 17.95 72.54 18.56C71.93 19.17 71.63 19.87 71.63 20.66C71.63 21.68 71.92 22.45 72.49 22.97C73.06 23.49 73.83 23.87 74.79 24.1C75.75 24.34 76.82 24.55 77.99 24.75C80.12 25.09 82.1 25.65 83.91 26.44C85.72 27.23 87.18 28.29 88.28 29.61C89.38 30.93 89.93 32.54 89.93 34.45C89.93 36.36 89.38 38.08 88.28 39.54C87.18 41 85.73 42.13 83.91 42.94C82.1 43.75 80.12 44.15 77.99 44.15L77.98 44.13Z" fill="url(#paint0_linear_2_16)"/>
<path d="M100.06 54.97H94.48V20.67H100.06V23.57C100.81 22.53 101.73 21.69 102.82 21.04C103.91 20.39 105.19 20.07 106.65 20.07C108.33 20.07 109.89 20.38 111.34 21.01C112.79 21.64 114.06 22.5 115.17 23.61C116.28 24.72 117.14 25.99 117.75 27.44C118.37 28.89 118.68 30.44 118.68 32.1C118.68 33.76 118.37 35.32 117.75 36.79C117.13 38.25 116.27 39.54 115.17 40.64C114.07 41.74 112.79 42.61 111.34 43.23C109.89 43.85 108.33 44.17 106.65 44.17C105.19 44.17 103.91 43.85 102.82 43.2C101.73 42.55 100.81 41.71 100.06 40.67V54.96V54.97ZM106.58 25.45C105.42 25.45 104.38 25.75 103.47 26.35C102.56 26.95 101.84 27.76 101.32 28.76C100.8 29.77 100.54 30.88 100.54 32.1C100.54 33.32 100.8 34.44 101.32 35.45C101.84 36.46 102.55 37.27 103.47 37.87C104.38 38.47 105.42 38.77 106.58 38.77C107.74 38.77 108.83 38.47 109.8 37.88C110.78 37.29 111.55 36.48 112.13 35.47C112.71 34.46 113 33.33 113 32.1C113 30.87 112.71 29.77 112.13 28.76C111.55 27.75 110.78 26.95 109.81 26.35C108.84 25.75 107.76 25.45 106.57 25.45H106.58Z" fill="url(#paint1_linear_2_16)"/>
<path d="M132.39 44.13C130.29 44.13 128.37 43.59 126.64 42.51C124.91 41.43 123.53 39.97 122.5 38.14C121.47 36.31 120.96 34.29 120.96 32.08C120.96 30.42 121.26 28.86 121.85 27.4C122.44 25.94 123.26 24.66 124.31 23.56C125.35 22.45 126.57 21.59 127.96 20.96C129.35 20.34 130.83 20.02 132.4 20.02C134.18 20.02 135.82 20.4 137.3 21.15C138.79 21.9 140.05 22.94 141.08 24.25C142.12 25.56 142.87 27.05 143.34 28.73C143.81 30.41 143.92 32.16 143.66 33.99H126.95C127.16 34.84 127.51 35.61 128 36.29C128.49 36.97 129.11 37.51 129.85 37.91C130.6 38.31 131.44 38.52 132.39 38.54C133.37 38.56 134.25 38.32 135.05 37.84C135.85 37.36 136.52 36.71 137.05 35.88L142.74 37.21C141.81 39.24 140.42 40.9 138.58 42.18C136.74 43.47 134.67 44.11 132.38 44.11L132.39 44.13ZM126.77 29.82H138.02C137.85 28.91 137.5 28.08 136.96 27.34C136.42 26.6 135.75 26.01 134.96 25.57C134.17 25.13 133.31 24.91 132.4 24.91C131.49 24.91 130.64 25.13 129.86 25.56C129.08 25.99 128.42 26.58 127.88 27.32C127.34 28.06 126.97 28.89 126.77 29.82Z" fill="url(#paint2_linear_2_16)"/>
<path d="M161.64 36.65L166.67 39.37C165.62 40.8 164.3 41.95 162.71 42.82C161.12 43.69 159.39 44.12 157.52 44.12C155.42 44.12 153.5 43.58 151.77 42.5C150.04 41.42 148.66 39.97 147.63 38.14C146.6 36.32 146.09 34.3 146.09 32.09C146.09 30.41 146.39 28.85 146.98 27.39C147.57 25.93 148.39 24.65 149.44 23.55C150.48 22.44 151.7 21.58 153.09 20.95C154.48 20.33 155.96 20.01 157.53 20.01C159.41 20.01 161.13 20.44 162.72 21.31C164.31 22.18 165.62 23.35 166.68 24.81L161.65 27.51C161.12 26.9 160.49 26.43 159.76 26.09C159.04 25.76 158.29 25.59 157.53 25.59C156.43 25.59 155.44 25.89 154.56 26.49C153.68 27.09 152.97 27.88 152.46 28.87C151.94 29.85 151.68 30.92 151.68 32.08C151.68 33.24 151.94 34.29 152.46 35.27C152.98 36.25 153.68 37.04 154.56 37.64C155.44 38.23 156.44 38.53 157.53 38.53C158.32 38.53 159.08 38.36 159.79 38.02C160.51 37.68 161.12 37.22 161.64 36.64V36.65Z" fill="url(#paint3_linear_2_16)"/>
<path d="M183.04 26.25H178.6V43.54H173.02V26.25H169.64V20.67H173.02V13.49H178.6V20.67H183.04V26.25Z" fill="url(#paint4_linear_2_16)"/>
<path d="M187.18 43.53L187.16 20.66H192.74L192.76 22.7C193.54 21.88 194.47 21.23 195.55 20.74C196.63 20.26 197.8 20.02 199.05 20.02C199.89 20.02 200.73 20.14 201.57 20.39L199.37 26.01C198.79 25.78 198.21 25.67 197.63 25.67C196.73 25.67 195.91 25.89 195.17 26.32C194.43 26.75 193.84 27.34 193.41 28.08C192.98 28.82 192.76 29.64 192.76 30.54V43.53H187.18Z" fill="url(#paint5_linear_2_16)"/>
<path d="M220.29 20.67H225.87V43.54H220.29L220.04 40.7C219.41 41.72 218.59 42.55 217.56 43.18C216.53 43.81 215.32 44.13 213.91 44.13C212.22 44.13 210.63 43.81 209.15 43.17C207.67 42.53 206.37 41.65 205.25 40.52C204.13 39.39 203.25 38.09 202.62 36.61C201.99 35.13 201.67 33.55 201.67 31.85C201.67 30.15 201.97 28.69 202.57 27.25C203.17 25.82 204.01 24.56 205.1 23.48C206.18 22.4 207.43 21.55 208.85 20.94C210.27 20.33 211.79 20.03 213.42 20.03C214.93 20.03 216.28 20.37 217.48 21.04C218.68 21.71 219.69 22.56 220.53 23.6L220.28 20.67H220.29ZM213.77 38.76C214.96 38.76 216.01 38.46 216.93 37.87C217.85 37.28 218.56 36.47 219.08 35.46C219.6 34.45 219.86 33.33 219.86 32.11C219.86 30.89 219.6 29.75 219.08 28.74C218.56 27.73 217.84 26.92 216.92 26.33C216 25.74 214.95 25.44 213.78 25.44C212.61 25.44 211.54 25.74 210.57 26.34C209.6 26.94 208.83 27.75 208.26 28.75C207.69 29.76 207.4 30.88 207.4 32.11C207.4 33.34 207.69 34.47 208.27 35.47C208.85 36.48 209.62 37.28 210.59 37.87C211.56 38.46 212.62 38.76 213.78 38.76H213.77Z" fill="url(#paint6_linear_2_16)"/>
</g>
<defs>
<linearGradient id="paint0_linear_2_16" x1="65.99" y1="27.55" x2="89.98" y2="27.55" gradientUnits="userSpaceOnUse">
<stop stop-color="#734199"/>
<stop offset="0.99" stop-color="#8D54A2"/>
</linearGradient>
<linearGradient id="paint1_linear_2_16" x1="94.48" y1="37.52" x2="118.68" y2="37.52" gradientUnits="userSpaceOnUse">
<stop stop-color="#734199"/>
<stop offset="0.99" stop-color="#8D54A2"/>
</linearGradient>
<linearGradient id="paint2_linear_2_16" x1="120.96" y1="32.08" x2="143.8" y2="32.08" gradientUnits="userSpaceOnUse">
<stop stop-color="#734199"/>
<stop offset="0.99" stop-color="#8D54A2"/>
</linearGradient>
<linearGradient id="paint3_linear_2_16" x1="146.09" y1="32.08" x2="166.67" y2="32.08" gradientUnits="userSpaceOnUse">
<stop stop-color="#734199"/>
<stop offset="0.99" stop-color="#8D54A2"/>
</linearGradient>
<linearGradient id="paint4_linear_2_16" x1="169.64" y1="28.51" x2="183.04" y2="28.51" gradientUnits="userSpaceOnUse">
<stop stop-color="#734199"/>
<stop offset="0.99" stop-color="#8D54A2"/>
</linearGradient>
<linearGradient id="paint5_linear_2_16" x1="187.16" y1="31.78" x2="201.56" y2="31.78" gradientUnits="userSpaceOnUse">
<stop stop-color="#734199"/>
<stop offset="0.99" stop-color="#8D54A2"/>
</linearGradient>
<linearGradient id="paint6_linear_2_16" x1="201.68" y1="32.08" x2="225.87" y2="32.08" gradientUnits="userSpaceOnUse">
<stop stop-color="#734199"/>
<stop offset="0.99" stop-color="#8D54A2"/>
</linearGradient>
<clipPath id="clip0_2_16">
<rect width="274.4" height="53.8" fill="white"/>
</clipPath>
</defs>
</svg>
