<svg width="26" height="24" viewBox="0 0 26 24" fill="none" xmlns="http://www.w3.org/2000/svg">
<path fill-rule="evenodd" clip-rule="evenodd" d="M13.36 4.96906C12.8186 4.7748 12.2264 4.7748 11.685 4.96906L3.411 7.93506C2.238 8.35506 2.238 10.0141 3.411 10.4351L11.685 13.4011C12.2267 13.5956 12.8193 13.5956 13.361 13.4011L21.635 10.4341C22.808 10.0141 22.808 8.35506 21.635 7.93506L13.36 4.96906ZM12.193 6.38006C12.4073 6.30303 12.6417 6.30303 12.856 6.38006L20.677 9.18406L12.856 11.9881C12.6414 12.0653 12.4066 12.0653 12.192 11.9881L4.37 9.18506L12.193 6.38006Z" fill="#734199"/>
<path d="M3.41 13.565L5.554 12.796L7.777 13.593L4.37 14.814L12.191 17.618C12.4056 17.6953 12.6404 17.6953 12.855 17.618L20.676 14.814L17.27 13.594L19.492 12.796L21.635 13.565C22.808 13.985 22.808 15.644 21.635 16.065L13.361 19.03C12.8193 19.2245 12.2267 19.2245 11.685 19.03L3.411 16.064C2.238 15.644 2.238 13.985 3.411 13.564" fill="#734199"/>
</svg>
