<svg width="16" height="17" viewBox="0 0 16 17" fill="none" xmlns="http://www.w3.org/2000/svg">
<mask id="mask0_3_132" style="mask-type:luminance" maskUnits="userSpaceOnUse" x="0" y="0" width="16" height="17">
<rect y="0.799988" width="16" height="16" fill="white"/>
</mask>
<g mask="url(#mask0_3_132)">
<path fill-rule="evenodd" clip-rule="evenodd" d="M16 8.79999C16 8.79999 13 3.29999 8 3.29999C3 3.29999 0 8.79999 0 8.79999C0 8.79999 3 14.3 8 14.3C13 14.3 16 8.79999 16 8.79999ZM1.173 8.79999C1.65652 9.53486 2.21265 10.2193 2.83301 10.843C4.12 12.132 5.88 13.3 8 13.3C10.12 13.3 11.879 12.132 13.168 10.843C13.7884 10.2193 14.3445 9.53486 14.828 8.79999C14.3445 8.06511 13.7884 7.38067 13.168 6.75698C11.879 5.46799 10.119 4.29999 8 4.29999C5.88 4.29999 4.121 5.46799 2.832 6.75699C2.21164 7.38068 1.65551 8.06512 1.172 8.8L1.173 8.79999Z" fill="#BEBEBE"/>
<path fill-rule="evenodd" clip-rule="evenodd" d="M8 6.29999C6.61929 6.29999 5.5 7.41927 5.5 8.79998C5.5 10.1807 6.61928 11.3 7.99999 11.3C9.3807 11.3 10.5 10.1807 10.5 8.8C10.5 7.41929 9.38072 6.3 8.00001 6.29999H8ZM4.5 8.79999C4.5 7.54956 5.1671 6.39411 6.25 5.7689C7.3329 5.14368 8.66709 5.14368 9.75 5.7689C10.8329 6.39411 11.5 7.54956 11.5 8.79999C11.5 10.0504 10.8329 11.2059 9.75 11.8311C8.6671 12.4563 7.3329 12.4563 6.25 11.8311C5.1671 11.2059 4.5 10.0504 4.5 8.79999V8.79999Z" fill="#BEBEBE"/>
</g>
</svg>
