<svg width="24" height="24" viewBox="0 0 24 24" fill="none" xmlns="http://www.w3.org/2000/svg">
<path fill-rule="evenodd" clip-rule="evenodd" d="M12 2C11.5817 2.00001 11.168 2.0875 10.7855 2.25687C10.4029 2.42624 10.0601 2.67373 9.77889 2.98346C9.49769 3.29319 9.28439 3.6583 9.15266 4.05535C9.02094 4.4524 8.97371 4.87261 9.014 5.289L6.55 6.93C6.18881 6.71263 5.78586 6.57382 5.36743 6.52263C4.94899 6.47143 4.52447 6.509 4.12152 6.63288C3.71858 6.75675 3.34627 6.96416 3.02886 7.24158C2.71145 7.519 2.45607 7.8602 2.27937 8.24293C2.10267 8.62567 2.00861 9.04134 2.00333 9.46287C1.99806 9.88439 2.08167 10.3023 2.24874 10.6893C2.4158 11.0764 2.66256 11.4239 2.97292 11.7091C3.28329 11.9944 3.65029 12.2111 4.05 12.345L4.907 16.632C4.55821 16.9042 4.27393 17.2501 4.07454 17.6451C3.87515 18.04 3.76558 18.4742 3.75368 18.9164C3.74178 19.3587 3.82784 19.7981 4.00571 20.2032C4.18358 20.6083 4.44884 20.969 4.78249 21.2596C5.11615 21.5501 5.50993 21.7633 5.93563 21.8837C6.36133 22.0042 6.80841 22.0291 7.24484 21.9565C7.68126 21.8839 8.09623 21.7156 8.46001 21.4638C8.82379 21.212 9.12737 20.8829 9.349 20.5H14.651C14.8724 20.8832 15.1759 21.2126 15.5397 21.4647C15.9034 21.7168 16.3185 21.8853 16.755 21.9581C17.1915 22.0309 17.6388 22.0062 18.0646 21.8858C18.4905 21.7654 18.8845 21.5522 19.2183 21.2617C19.5521 20.9711 19.8175 20.6102 19.9954 20.205C20.1733 19.7998 20.2593 19.3602 20.2474 18.9178C20.2354 18.4754 20.1257 18.0411 19.9261 17.6461C19.7265 17.2511 19.442 16.9051 19.093 16.633L19.95 12.346C20.351 12.213 20.7193 11.9968 21.031 11.7116C21.3427 11.4264 21.5906 11.0787 21.7586 10.6911C21.9266 10.3034 22.0109 9.88473 22.0059 9.46231C22.0009 9.03988 21.9068 8.62327 21.7298 8.23972C21.5527 7.85617 21.2966 7.51432 20.9783 7.23655C20.66 6.95878 20.2867 6.75135 19.8827 6.62781C19.4787 6.50427 19.0532 6.46742 18.634 6.51967C18.2148 6.57192 17.8113 6.71208 17.45 6.931L14.986 5.29C14.996 5.194 15.0007 5.09733 15 5C15 4.20435 14.6839 3.44129 14.1213 2.87868C13.5587 2.31607 12.7957 2 12 2ZM11 5C11 4.73478 11.1054 4.48043 11.2929 4.29289C11.4804 4.10536 11.7348 4 12 4C12.2652 4 12.5196 4.10536 12.7071 4.29289C12.8946 4.48043 13 4.73478 13 5C13 5.26522 12.8946 5.51957 12.7071 5.70711C12.5196 5.89464 12.2652 6 12 6C11.7348 6 11.4804 5.89464 11.2929 5.70711C11.1054 5.51957 11 5.26522 11 5ZM16.176 8.486L14.125 7.118C13.8463 7.39761 13.5151 7.61946 13.1504 7.77081C12.7858 7.92216 12.3948 8.00005 12 8C11.6052 8.00005 11.2142 7.92216 10.8496 7.77081C10.4849 7.61946 10.1537 7.39761 9.875 7.118L7.825 8.485C8.09038 9.22281 8.05635 10.0352 7.73021 10.7482C7.40406 11.4613 6.81172 12.0183 6.08 12.3L6.819 16.002C7.51574 16.018 8.18518 16.2761 8.71236 16.7319C9.23954 17.1877 9.59157 17.8129 9.708 18.5H14.291C14.407 17.8125 14.7589 17.1869 15.2861 16.7307C15.8133 16.2744 16.483 16.0161 17.18 16L17.92 12.3C17.1887 12.0181 16.5968 11.4611 16.2709 10.7484C15.9449 10.0356 15.9109 9.22356 16.176 8.486ZM5 8.5C4.73479 8.5 4.48043 8.60536 4.2929 8.79289C4.10536 8.98043 4 9.23478 4 9.5C4 9.76522 4.10536 10.0196 4.2929 10.2071C4.48043 10.3946 4.73479 10.5 5 10.5C5.26522 10.5 5.51957 10.3946 5.70711 10.2071C5.89465 10.0196 6 9.76522 6 9.5C6 9.23478 5.89465 8.98043 5.70711 8.79289C5.51957 8.60536 5.26522 8.5 5 8.5ZM5.75 19C5.75 18.7348 5.85536 18.4804 6.0429 18.2929C6.23043 18.1054 6.48479 18 6.75 18C7.01522 18 7.26958 18.1054 7.45711 18.2929C7.64465 18.4804 7.75 18.7348 7.75 19C7.75 19.2652 7.64465 19.5196 7.45711 19.7071C7.26958 19.8946 7.01522 20 6.75 20C6.48479 20 6.23043 19.8946 6.0429 19.7071C5.85536 19.5196 5.75 19.2652 5.75 19ZM17.25 18C16.9848 18 16.7304 18.1054 16.5429 18.2929C16.3554 18.4804 16.25 18.7348 16.25 19C16.25 19.2652 16.3554 19.5196 16.5429 19.7071C16.7304 19.8946 16.9848 20 17.25 20C17.5152 20 17.7696 19.8946 17.9571 19.7071C18.1446 19.5196 18.25 19.2652 18.25 19C18.25 18.7348 18.1446 18.4804 17.9571 18.2929C17.7696 18.1054 17.5152 18 17.25 18ZM18 9.5C18 9.23478 18.1054 8.98043 18.2929 8.79289C18.4804 8.60536 18.7348 8.5 19 8.5C19.2652 8.5 19.5196 8.60536 19.7071 8.79289C19.8946 8.98043 20 9.23478 20 9.5C20 9.76522 19.8946 10.0196 19.7071 10.2071C19.5196 10.3946 19.2652 10.5 19 10.5C18.7348 10.5 18.4804 10.3946 18.2929 10.2071C18.1054 10.0196 18 9.76522 18 9.5Z" fill="#FF6F61"/>
</svg>
