<svg width="13" height="16" viewBox="0 0 13 16" fill="none" xmlns="http://www.w3.org/2000/svg">
<path d="M1.63499 0.232687C1.48874 0.112156 1.31124 0.0356927 1.12319 0.0122154C0.935132 -0.0112619 0.744279 0.0192151 0.57289 0.100091C0.4015 0.180967 0.256639 0.308908 0.155204 0.46899C0.0537684 0.629072 -5.88872e-05 0.814695 4.83445e-08 1.00421V14.9935C4.83445e-08 15.92 1.14929 16.3477 1.75491 15.6481L5.27673 11.5777C5.41747 11.4152 5.59151 11.2848 5.78705 11.1955C5.98259 11.1062 6.19505 11.06 6.41003 11.06H11.9986C12.936 11.06 13.3577 9.88471 12.6342 9.28907L1.63499 0.232687Z" fill="#FF6F61"/>
</svg>
