<svg width="30" height="30" viewBox="0 0 30 30" fill="none" xmlns="http://www.w3.org/2000/svg">
<path d="M17.1904 9.59622C17.2312 9.69166 17.2924 9.78711 17.374 9.85073L25.7361 13.3078C25.7361 13.3078 25.787 13.3608 25.7972 13.4033C25.8176 13.4987 25.7565 13.6048 25.6443 13.6154L17.6289 14.5592C17.6289 14.5592 17.5372 14.5804 17.4964 14.591C17.3026 14.6652 17.1496 14.8243 17.0885 15.0364L14.4779 24.3154V24.3472L14.3249 24.8456C14.3249 24.8668 14.3045 24.8986 14.2841 24.9198C14.2637 24.941 14.2331 24.9622 14.2025 24.9729C14.1209 24.9941 14.0292 24.9729 14.0088 24.8668L12.6423 16.7649C12.6423 16.7649 12.6219 16.6801 12.6015 16.6483C12.5505 16.5104 12.4383 16.4044 12.2956 16.3619L12.1528 16.3195L6.1056 14.4531L2.92394 13.4669C2.92394 13.4669 2.84235 13.4139 2.83216 13.3821C2.81176 13.2972 2.85255 13.1806 2.97492 13.1594L10.2764 11.5475C10.5008 11.505 10.6843 11.3248 10.7557 11.1021L12.6117 5.1317L13.9068 0.953497C13.9068 0.953497 13.9476 0.879265 13.9782 0.858056C14.0598 0.794429 14.1719 0.815638 14.2025 0.921683L17.1904 9.59622Z" fill="url(#paint0_linear_2246_17457)"/>
<path d="M13.9782 0.857422L12.0916 10.3485C11.9489 11.0378 11.1317 11.5662 10.479 11.4707C10.479 11.4707 10.6844 11.3029 10.7558 11.0802C11.0923 9.99856 12.1018 6.75356 12.6117 5.10986C13.04 3.72066 13.4683 2.33146 13.8966 0.952863C13.9068 0.910445 13.9374 0.878631 13.968 0.857422H13.9782Z" fill="url(#paint1_linear_2246_17457)"/>
<path d="M25.7355 13.3074C25.7355 13.3074 25.7865 13.3604 25.7967 13.4029L17.9241 11.2395C17.3327 11.0911 17.0471 10.3912 17.2817 9.75488L17.3735 9.85032L25.7355 13.3074Z" fill="url(#paint2_linear_2246_17457)"/>
<path d="M17.5072 14.5598V14.6022C17.3033 14.6764 17.1503 14.8355 17.0891 15.0476L14.4785 24.3266V24.3584L14.295 24.931C14.2746 24.9523 14.244 24.9735 14.2134 24.9841L16.0693 15.652C16.2019 14.9521 16.8546 14.4643 17.5072 14.5598Z" fill="url(#paint3_linear_2246_17457)"/>
<path d="M12.6224 16.6586C12.5714 16.5102 12.4592 16.4041 12.3164 16.3617L12.1737 16.3193L6.12647 14.4529L2.94481 13.4667C2.94481 13.4667 2.86322 13.4136 2.85303 13.3818L11.827 14.9937C12.4592 15.1104 12.8467 15.9906 12.6326 16.6693L12.6224 16.6586Z" fill="url(#paint4_linear_2246_17457)"/>
<g opacity="0.4">
<path d="M7.83304 21.4223C7.85223 21.4721 7.88101 21.522 7.92897 21.552L12.1403 23.2977C12.1403 23.2977 12.1691 23.3277 12.1691 23.3476C12.1691 23.3975 12.1499 23.4474 12.0924 23.4573L8.05368 23.9262C8.05368 23.9262 8.00572 23.9262 7.98653 23.9462C7.8906 23.9761 7.81385 24.0659 7.78508 24.1656L6.47083 28.8343V28.8543L6.39408 29.1037C6.39408 29.1137 6.38449 29.1336 6.37489 29.1436C6.3653 29.1536 6.34612 29.1635 6.33652 29.1735C6.29815 29.1835 6.25018 29.1735 6.24059 29.1137L5.54989 25.0335C5.54989 25.0335 5.5403 24.9936 5.5307 24.9737C5.50193 24.9038 5.44437 24.854 5.37722 24.824L5.31006 24.8041L2.26906 23.8664L0.66702 23.3676C0.66702 23.3676 0.628648 23.3476 0.619055 23.3277C0.609462 23.2878 0.628648 23.2279 0.686206 23.2179L4.36035 22.3999C4.47547 22.3799 4.5714 22.2902 4.60018 22.1705L5.5403 19.1577L6.19263 17.0628C6.19263 17.0628 6.21181 17.0229 6.231 17.0129C6.26937 16.983 6.32693 16.993 6.34612 17.0429L7.85223 21.4123L7.83304 21.4223Z" fill="url(#paint5_linear_2246_17457)"/>
<path d="M6.22086 17.0227L5.27115 21.8011C5.204 22.1503 4.7915 22.3997 4.46533 22.3498C4.46533 22.3498 4.57086 22.28 4.59963 22.1702C4.77231 21.6215 5.28074 19.9955 5.53976 19.1575C5.7604 18.4592 5.97144 17.7609 6.19208 17.0626C6.19208 17.0426 6.21127 17.0227 6.23046 17.0127L6.22086 17.0227Z" fill="url(#paint6_linear_2246_17457)"/>
<path d="M12.1402 23.2984C12.1402 23.2984 12.169 23.3283 12.169 23.3483L8.20709 22.2609C7.9097 22.1811 7.76581 21.8319 7.88093 21.5127L7.92889 21.5626L12.1402 23.3084V23.2984Z" fill="url(#paint7_linear_2246_17457)"/>
<path d="M7.99554 23.9253V23.9453C7.89001 23.9752 7.81327 24.065 7.78449 24.1647L6.47024 28.8334V28.8534L6.37431 29.1427C6.36472 29.1527 6.34553 29.1626 6.33594 29.1726L7.26647 24.474C7.33362 24.1248 7.65978 23.8754 7.98595 23.9253H7.99554Z" fill="url(#paint8_linear_2246_17457)"/>
<path d="M5.53079 24.9839C5.50201 24.9141 5.44445 24.8542 5.3773 24.8343L5.31015 24.8143L2.26915 23.8766L0.667106 23.3778C0.667106 23.3778 0.628734 23.3578 0.619141 23.3379L5.13747 24.1459C5.45405 24.2058 5.64591 24.6447 5.54038 24.9839H5.53079Z" fill="url(#paint9_linear_2246_17457)"/>
</g>
<g opacity="0.73">
<path d="M26.6412 17.1917C26.6412 17.1917 26.6788 17.2502 26.7038 17.2763L29.3633 18.4997C29.3633 18.4997 29.3821 18.5192 29.3821 18.5322C29.3884 18.5582 29.3696 18.5973 29.3383 18.5973L26.854 18.7534C26.854 18.7534 26.829 18.7534 26.8102 18.76C26.7539 18.7795 26.7038 18.8315 26.6913 18.8901L26.028 21.7404V21.7534L25.9904 21.9095C25.9904 21.9161 25.9904 21.9226 25.9779 21.9291C25.9717 21.9356 25.9654 21.9421 25.9529 21.9421C25.9279 21.9421 25.8966 21.9421 25.8903 21.903L25.3334 19.3521C25.3334 19.3521 25.3271 19.3261 25.3209 19.3131C25.3021 19.2675 25.2645 19.235 25.2207 19.2155L25.1769 19.2025L23.2621 18.5127L22.2546 18.1483C22.2546 18.1483 22.2296 18.1287 22.2233 18.1222C22.217 18.0962 22.2233 18.0572 22.2609 18.0506L24.5136 17.6732C24.5825 17.6602 24.6388 17.6081 24.6576 17.5431L25.1394 15.7145L25.4711 14.439C25.4711 14.439 25.4836 14.4195 25.4898 14.413C25.5149 14.3935 25.5524 14.4 25.5587 14.439L26.6287 17.1982L26.6412 17.1917Z" fill="url(#paint10_linear_2246_17457)"/>
<path d="M25.4966 14.4131L25.0649 17.3414C25.0336 17.5562 24.7833 17.6993 24.583 17.6538C24.583 17.6538 24.6456 17.6147 24.6644 17.5432C24.752 17.2113 25.0148 16.2156 25.1462 15.7146C25.2588 15.2916 25.3715 14.8621 25.4779 14.4391C25.4779 14.4261 25.4904 14.4196 25.4966 14.4131Z" fill="url(#paint11_linear_2246_17457)"/>
<path d="M29.3632 18.5001C29.3632 18.5001 29.3819 18.5196 29.3819 18.5326L26.8914 17.7192C26.7036 17.6606 26.6035 17.4394 26.6661 17.2441L26.6974 17.2767L29.3569 18.5001H29.3632Z" fill="url(#paint12_linear_2246_17457)"/>
<path d="M26.8167 18.7471V18.7601C26.7541 18.7796 26.7103 18.8317 26.6915 18.8902L26.0282 21.7405V21.7535L25.9782 21.9292C25.9719 21.9357 25.9656 21.9422 25.9531 21.9422L26.3786 19.0659C26.4099 18.8512 26.6039 18.708 26.8104 18.7536L26.8167 18.7471Z" fill="url(#paint13_linear_2246_17457)"/>
<path d="M25.3266 19.3207C25.3078 19.2752 25.2702 19.2361 25.2264 19.2231L25.1826 19.2101L23.2678 18.5203L22.2603 18.1559C22.2603 18.1559 22.2353 18.1364 22.229 18.1299L25.0512 18.7871C25.2515 18.8327 25.3829 19.1125 25.3266 19.3207Z" fill="white"/>
</g>
<defs>
<linearGradient id="paint0_linear_2246_17457" x1="10.3593" y1="17.0883" x2="22.4689" y2="5.4434" gradientUnits="userSpaceOnUse">
<stop stop-color="#42B6E9"/>
<stop offset="0.38" stop-color="#F06CA8"/>
<stop offset="0.68" stop-color="#F68C1E"/>
<stop offset="0.99" stop-color="#F8EC20"/>
</linearGradient>
<linearGradient id="paint1_linear_2246_17457" x1="10.9882" y1="7.87024" x2="18.066" y2="1.06403" gradientUnits="userSpaceOnUse">
<stop stop-color="#42B6E9"/>
<stop offset="0.38" stop-color="#F06CA8"/>
<stop offset="0.68" stop-color="#F68C1E"/>
<stop offset="0.99" stop-color="#F8EC20"/>
</linearGradient>
<linearGradient id="paint2_linear_2246_17457" x1="23.3635" y1="11.6176" x2="23.1409" y2="7.5114" gradientUnits="userSpaceOnUse">
<stop stop-color="#42B6E9"/>
<stop offset="0.38" stop-color="#F06CA8"/>
<stop offset="0.68" stop-color="#F68C1E"/>
<stop offset="0.99" stop-color="#F8EC20"/>
</linearGradient>
<linearGradient id="paint3_linear_2246_17457" x1="17.5747" y1="22.8437" x2="17.0288" y2="12.624" gradientUnits="userSpaceOnUse">
<stop stop-color="#42B6E9"/>
<stop offset="0.38" stop-color="#F06CA8"/>
<stop offset="0.68" stop-color="#F68C1E"/>
<stop offset="0.99" stop-color="#F8EC20"/>
</linearGradient>
<linearGradient id="paint4_linear_2246_17457" x1="9.63634" y1="14.8709" x2="9.42993" y2="11.0636" gradientUnits="userSpaceOnUse">
<stop stop-color="#42B6E9"/>
<stop offset="0.38" stop-color="#F06CA8"/>
<stop offset="0.68" stop-color="#F68C1E"/>
<stop offset="0.99" stop-color="#F8EC20"/>
</linearGradient>
<linearGradient id="paint5_linear_2246_17457" x1="5.29717" y1="24.2585" x2="11.392" y2="18.3975" gradientUnits="userSpaceOnUse">
<stop stop-color="#42B6E9"/>
<stop offset="0.38" stop-color="#F06CA8"/>
<stop offset="0.68" stop-color="#F68C1E"/>
<stop offset="0.99" stop-color="#F8EC20"/>
</linearGradient>
<linearGradient id="paint6_linear_2246_17457" x1="5.60777" y1="19.6177" x2="9.1755" y2="16.1868" gradientUnits="userSpaceOnUse">
<stop stop-color="#42B6E9"/>
<stop offset="0.38" stop-color="#F06CA8"/>
<stop offset="0.68" stop-color="#F68C1E"/>
<stop offset="0.99" stop-color="#F8EC20"/>
</linearGradient>
<linearGradient id="paint7_linear_2246_17457" x1="11.8444" y1="21.4996" x2="11.7329" y2="19.4424" gradientUnits="userSpaceOnUse">
<stop stop-color="#42B6E9"/>
<stop offset="0.38" stop-color="#F06CA8"/>
<stop offset="0.68" stop-color="#F68C1E"/>
<stop offset="0.99" stop-color="#F8EC20"/>
</linearGradient>
<linearGradient id="paint8_linear_2246_17457" x1="8.92674" y1="27.1557" x2="8.65554" y2="22.0115" gradientUnits="userSpaceOnUse">
<stop stop-color="#42B6E9"/>
<stop offset="0.38" stop-color="#F06CA8"/>
<stop offset="0.68" stop-color="#F68C1E"/>
<stop offset="0.99" stop-color="#F8EC20"/>
</linearGradient>
<linearGradient id="paint9_linear_2246_17457" x1="4.9321" y1="23.143" x2="4.8286" y2="21.2338" gradientUnits="userSpaceOnUse">
<stop stop-color="#42B6E9"/>
<stop offset="0.38" stop-color="#F06CA8"/>
<stop offset="0.68" stop-color="#F68C1E"/>
<stop offset="0.99" stop-color="#F8EC20"/>
</linearGradient>
<linearGradient id="paint10_linear_2246_17457" x1="24.0392" y1="20.0222" x2="27.621" y2="16.5778" gradientUnits="userSpaceOnUse">
<stop stop-color="#42B6E9"/>
<stop offset="0.38" stop-color="#F06CA8"/>
<stop offset="0.68" stop-color="#F68C1E"/>
<stop offset="0.99" stop-color="#F8EC20"/>
</linearGradient>
<linearGradient id="paint11_linear_2246_17457" x1="24.0884" y1="17.1556" x2="26.1851" y2="15.1394" gradientUnits="userSpaceOnUse">
<stop stop-color="#42B6E9"/>
<stop offset="0.38" stop-color="#F06CA8"/>
<stop offset="0.68" stop-color="#F68C1E"/>
<stop offset="0.99" stop-color="#F8EC20"/>
</linearGradient>
<linearGradient id="paint12_linear_2246_17457" x1="28.017" y1="18.5363" x2="28.0122" y2="17.2525" gradientUnits="userSpaceOnUse">
<stop stop-color="#42B6E9"/>
<stop offset="0.38" stop-color="#F06CA8"/>
<stop offset="0.68" stop-color="#F68C1E"/>
<stop offset="0.99" stop-color="#F8EC20"/>
</linearGradient>
<linearGradient id="paint13_linear_2246_17457" x1="26.3846" y1="21.9457" x2="26.3846" y2="18.7431" gradientUnits="userSpaceOnUse">
<stop stop-color="#42B6E9"/>
<stop offset="0.38" stop-color="#F06CA8"/>
<stop offset="0.68" stop-color="#F68C1E"/>
<stop offset="0.99" stop-color="#F8EC20"/>
</linearGradient>
</defs>
</svg>
