<svg width="25" height="24" viewBox="0 0 25 24" fill="none" xmlns="http://www.w3.org/2000/svg">
<path d="M5.7065 7.69099C2.93666 7.69099 0.666504 9.95743 0.666504 12.7238C0.666504 13.7957 1.00826 14.7919 1.5869 15.6108L5.09162 21.678C5.58242 22.3202 5.90882 22.1984 6.31706 21.6444L10.1825 15.0566C10.2605 14.9148 10.3217 14.7643 10.3752 14.6105C10.6203 14.0117 10.7464 13.3709 10.7465 12.7238C10.7465 9.95743 8.47706 7.69099 5.7065 7.69099ZM5.7065 10.0492C7.19834 10.0492 8.3849 11.2344 8.3849 12.724C8.3849 14.2137 7.1981 15.3983 5.7065 15.3983C4.2149 15.3983 3.0281 14.2134 3.0281 12.724C3.0281 11.2346 4.21514 10.0492 5.7065 10.0492ZM21.7265 0C20.1108 0 18.7865 1.32213 18.7865 2.93603C18.7865 3.56117 18.9857 4.14232 19.3234 4.61988L21.3679 8.15918C21.6543 8.53363 21.8446 8.46249 22.0827 8.13947L24.3375 4.29638C24.3831 4.21394 24.4188 4.12622 24.4498 4.03633C24.5932 3.6873 24.6668 3.31347 24.6665 2.93603C24.6665 1.32189 23.3427 0 21.7265 0ZM21.7265 1.37573C22.5967 1.37573 23.2889 2.06695 23.2889 2.93603C23.2889 3.80512 22.5967 4.49586 21.7265 4.49586C20.8563 4.49586 20.1641 3.80488 20.1641 2.93603C20.1641 2.06719 20.8565 1.37573 21.7265 1.37573Z" fill="#21C6B2"/>
<path fill-rule="evenodd" clip-rule="evenodd" d="M21.8366 8.9917C21.2973 9.00372 20.7566 9.02655 20.2149 9.06669L20.2984 10.3963C20.8187 10.3585 21.34 10.3342 21.8615 10.3234L21.8366 8.9917ZM18.9626 9.18878C18.1298 9.29237 17.2898 9.43994 16.4594 9.67716L16.7721 10.9656C17.5267 10.7503 18.3086 10.6111 19.1027 10.5124L18.9626 9.18878ZM15.2159 10.1232C14.9671 10.2332 14.7262 10.3603 14.495 10.5037L14.494 10.5049L14.4926 10.5054C14.1626 10.7135 13.8148 10.9777 13.5309 11.3615C13.3252 11.6396 13.157 11.9912 13.1176 12.407L14.3404 12.5428C14.3495 12.4452 14.3995 12.3164 14.4892 12.1952H14.4897V12.1948C14.6344 11.9986 14.8514 11.8205 15.1094 11.6576L15.1103 11.6571C15.2944 11.5437 15.4859 11.4428 15.6835 11.3552L15.2159 10.1232ZM14.5864 13.1359L13.7937 14.1538C13.9816 14.3259 14.1787 14.4581 14.369 14.5686L14.3714 14.5698L14.3738 14.5713C15.0055 14.9311 15.6568 15.1342 16.2607 15.3269L16.6077 14.0488C16.0041 13.856 15.4351 13.67 14.9474 13.3926C14.8077 13.3114 14.6853 13.2266 14.5864 13.1359ZM17.7868 14.4083L17.4479 15.6886L17.6083 15.7386L17.8051 15.8016C18.4564 16.0138 19.0804 16.2405 19.6382 16.5541L20.2041 15.3716C19.5297 14.9921 18.8296 14.7441 18.155 14.5244L18.1531 14.5239L17.951 14.4593L17.7868 14.4083ZM21.3549 16.259L20.4854 17.2011C20.6908 17.4239 20.8447 17.6919 20.9195 17.9688L20.92 17.9702L20.9205 17.9724C21.0098 18.2956 21.01 18.6759 20.9402 19.0599L22.1459 19.3176C22.2443 18.7754 22.2602 18.18 22.0984 17.5924C21.9575 17.0728 21.6887 16.6214 21.3549 16.259ZM20.5192 19.8627C20.3862 20.003 20.2393 20.1296 20.081 20.2405H20.0805C19.6485 20.5448 19.1474 20.7741 18.6151 20.9711L19.012 22.2315C19.5943 22.0159 20.1921 21.7515 20.7508 21.3579L20.7523 21.3566L20.753 21.3562C20.9824 21.1952 21.1946 21.011 21.3863 20.8065L20.5192 19.8627ZM17.4856 21.3261C16.7145 21.5338 15.9263 21.6919 15.1286 21.826L15.3167 23.1429C16.1378 23.0047 16.9622 22.8396 17.7815 22.6189L17.4856 21.3261ZM13.9283 22.0077C13.1253 22.1176 12.3179 22.2072 11.5082 22.2837L11.6143 23.6108C12.4365 23.5334 13.2602 23.4423 14.0827 23.3296L13.9283 22.0077ZM10.2911 22.3882C9.4797 22.4526 8.66634 22.505 7.85226 22.5492L7.9137 23.8798C8.7357 23.8353 9.55842 23.7822 10.3809 23.7168L10.2911 22.3882ZM6.62898 22.6093C6.14106 22.6322 5.65194 22.6509 5.16162 22.6682L5.20194 23.9999C5.69533 23.983 6.18861 23.9633 6.68178 23.9408L6.62898 22.6093Z" fill="#F5B942"/>
</svg>
