<svg width="14" height="14" viewBox="0 0 14 14" fill="none" xmlns="http://www.w3.org/2000/svg">
<g clip-path="url(#clip0_777_1607)">
<path fill-rule="evenodd" clip-rule="evenodd" d="M13.4631 9.692C13.4631 12.664 10.7701 14 7.00011 14C3.23011 14 0.537109 12.664 0.537109 9.713C0.537109 6.482 2.15311 4.845 5.38411 3.208L4.24011 1.077C4.17185 0.970268 4.13384 0.847008 4.13013 0.720368C4.12643 0.593727 4.15716 0.468455 4.21905 0.357907C4.28095 0.24736 4.37168 0.155684 4.48159 0.092653C4.59149 0.0296224 4.71644 -0.00239876 4.84311 3.84175e-06H9.41011C9.52884 0.00304183 9.64485 0.0362406 9.74721 0.0964757C9.84958 0.156711 9.93493 0.242001 9.99524 0.34432C10.0556 0.446639 10.0888 0.562621 10.092 0.68135C10.0951 0.80008 10.068 0.917653 10.0131 1.023L8.61611 3.208C11.8461 4.823 13.4631 6.46 13.4631 9.692ZM4.95711 6.5H6.64011C6.78011 6.542 6.95611 6.62 7.09711 6.75C7.20263 6.84577 7.28065 6.96798 7.32311 7.104H4.95811C4.89245 7.104 4.82743 7.11694 4.76677 7.14206C4.7061 7.16719 4.65098 7.20402 4.60456 7.25045C4.55813 7.29688 4.5213 7.352 4.49617 7.41266C4.47104 7.47332 4.45811 7.53834 4.45811 7.604C4.45811 7.66966 4.47104 7.73468 4.49617 7.79535C4.5213 7.85601 4.55813 7.91113 4.60456 7.95756C4.65098 8.00399 4.7061 8.04082 4.76677 8.06594C4.82743 8.09107 4.89245 8.104 4.95811 8.104H7.16511C6.99329 8.2949 6.77533 8.43849 6.53211 8.521C6.21863 8.63552 5.88872 8.69867 5.55511 8.708H5.54011C5.43833 8.70809 5.339 8.73924 5.25539 8.79729C5.17178 8.85534 5.10788 8.93752 5.07223 9.03285C5.03657 9.12818 5.03086 9.23213 5.05586 9.33079C5.08085 9.42946 5.13537 9.51815 5.21211 9.585L5.21411 9.587L5.21911 9.59L5.23211 9.602C5.30307 9.6622 5.37612 9.7199 5.45111 9.775C6.31343 10.4189 7.29407 10.8868 8.33711 11.152C8.40137 11.1696 8.46851 11.1742 8.53457 11.1655C8.60064 11.1568 8.6643 11.135 8.72182 11.1014C8.77933 11.0677 8.82954 11.0229 8.8695 10.9696C8.90945 10.9163 8.93834 10.8555 8.95447 10.7908C8.9706 10.7262 8.97365 10.659 8.96342 10.5931C8.9532 10.5273 8.92992 10.4641 8.89495 10.4074C8.85998 10.3507 8.81403 10.3015 8.75979 10.2628C8.70555 10.2241 8.64412 10.1966 8.57911 10.182C7.96743 10.0251 7.37905 9.7884 6.82911 9.478L6.88311 9.458C7.22111 9.331 7.59311 9.129 7.88311 8.802C8.05811 8.607 8.19511 8.374 8.28011 8.104H9.04211C9.17472 8.104 9.3019 8.05133 9.39566 7.95756C9.48943 7.86379 9.54211 7.73661 9.54211 7.604C9.54211 7.4714 9.48943 7.34422 9.39566 7.25045C9.3019 7.15668 9.17472 7.104 9.04211 7.104H8.34811C8.31649 6.89298 8.24956 6.68879 8.15011 6.5H9.04211C9.17472 6.5 9.3019 6.44733 9.39566 6.35356C9.48943 6.25979 9.54211 6.13261 9.54211 6C9.54211 5.8674 9.48943 5.74022 9.39566 5.64645C9.3019 5.55268 9.17472 5.5 9.04211 5.5H4.95811C4.8255 5.5 4.69832 5.55268 4.60456 5.64645C4.51079 5.74022 4.45811 5.8674 4.45811 6C4.45811 6.13261 4.51079 6.25979 4.60456 6.35356C4.69832 6.44733 4.8255 6.5 4.95811 6.5H4.95711Z" fill="#21C6B2"/>
</g>
<defs>
<clipPath id="clip0_777_1607">
<rect width="14" height="14" fill="white"/>
</clipPath>
</defs>
</svg>
