<svg width="13" height="16" viewBox="0 0 13 16" fill="none" xmlns="http://www.w3.org/2000/svg">
<path d="M3.20968 0.258057C3.62034 0.258057 4.01417 0.42119 4.30455 0.711569C4.59493 1.00195 4.75806 1.39579 4.75806 1.80644C4.75806 2.2171 4.59493 2.61094 4.30455 2.90132C4.01417 3.1917 3.62034 3.35483 3.20968 3.35483C2.79902 3.35483 2.40518 3.1917 2.1148 2.90132C1.82442 2.61094 1.66129 2.2171 1.66129 1.80644C1.66129 1.39579 1.82442 1.00195 2.1148 0.711569C2.40518 0.42119 2.79902 0.258057 3.20968 0.258057ZM2.04839 4.12902H4.37097C4.78163 4.12902 5.17546 4.29216 5.46584 4.58254C5.75622 4.87292 5.91935 5.26675 5.91935 5.67741V9.93548H4.75806V15.7419H1.66129V9.93548H0.5V5.67741C0.5 5.26675 0.663133 4.87292 0.953512 4.58254C1.24389 4.29216 1.63773 4.12902 2.04839 4.12902ZM8.62903 7.99999C8.62903 7.58933 8.79217 7.1955 9.08254 6.90512C9.37292 6.61474 9.76676 6.45161 10.1774 6.45161C10.5881 6.45161 10.9819 6.61474 11.2723 6.90512C11.5627 7.1955 11.7258 7.58933 11.7258 7.99999C11.7258 8.41065 11.5627 8.80449 11.2723 9.09487C10.9819 9.38525 10.5881 9.54838 10.1774 9.54838C9.76676 9.54838 9.37292 9.38525 9.08254 9.09487C8.79217 8.80449 8.62903 8.41065 8.62903 7.99999ZM7.85484 10.3226H12.5V13.4193H11.3387V15.7419H9.01613V13.4193H7.85484V10.3226Z" fill="#8979FF"/>
</svg>
