<svg width="20" height="21" viewBox="0 0 20 21" fill="none" xmlns="http://www.w3.org/2000/svg">
<g clip-path="url(#clip0_1623_23995)">
<path fill-rule="evenodd" clip-rule="evenodd" d="M10.5892 13.589C10.4329 13.7453 10.221 13.833 10 13.833C9.77903 13.833 9.56711 13.7453 9.41083 13.589L4.69667 8.87488C4.61708 8.79801 4.55359 8.70605 4.50992 8.60438C4.46624 8.50271 4.44325 8.39336 4.44229 8.28271C4.44133 8.17206 4.46242 8.06233 4.50432 7.95992C4.54622 7.8575 4.60809 7.76446 4.68634 7.68622C4.76458 7.60797 4.85763 7.54609 4.96004 7.50419C5.06245 7.46229 5.17219 7.44121 5.28284 7.44217C5.39348 7.44313 5.50283 7.46612 5.6045 7.50979C5.70617 7.55347 5.79813 7.61695 5.875 7.69655L10 11.8215L14.125 7.69655C14.2822 7.54475 14.4927 7.46075 14.7112 7.46265C14.9297 7.46455 15.1387 7.55219 15.2932 7.7067C15.4477 7.8612 15.5353 8.07021 15.5372 8.28871C15.5391 8.50721 15.4551 8.71771 15.3033 8.87488L10.5892 13.589Z" fill="black"/>
</g>
<defs>
<clipPath id="clip0_1623_23995">
<rect width="20" height="20" fill="white" transform="translate(0 0.5)"/>
</clipPath>
</defs>
</svg>
