<svg width="20" height="20" viewBox="0 0 20 20" fill="none" xmlns="http://www.w3.org/2000/svg">
<path d="M15.625 1.25H4.375C3.87772 1.25 3.40081 1.44754 3.04917 1.79917C2.69754 2.15081 2.5 2.62772 2.5 3.125V15.625C2.49996 15.8886 2.55561 16.1492 2.66332 16.3898C2.77103 16.6304 2.92836 16.8455 3.125 17.0211V17.7344C3.125 18.0037 3.232 18.2621 3.42247 18.4525C3.61294 18.643 3.87126 18.75 4.14062 18.75H5.23438C5.50374 18.75 5.76206 18.643 5.95253 18.4525C6.143 18.2621 6.25 18.0037 6.25 17.7344V17.5H13.75V17.7344C13.75 18.0037 13.857 18.2621 14.0475 18.4525C14.2379 18.643 14.4963 18.75 14.7656 18.75H15.8594C16.1287 18.75 16.3871 18.643 16.5775 18.4525C16.768 18.2621 16.875 18.0037 16.875 17.7344V17.0211C17.0716 16.8455 17.229 16.6304 17.3367 16.3898C17.4444 16.1492 17.5 15.8886 17.5 15.625V3.125C17.5 2.62772 17.3025 2.15081 16.9508 1.79917C16.5992 1.44754 16.1223 1.25 15.625 1.25ZM5.76055 15.618C5.50329 15.646 5.24368 15.5934 5.01755 15.4676C4.79141 15.3418 4.60991 15.1489 4.49807 14.9155C4.38623 14.6822 4.34958 14.4198 4.39317 14.1648C4.43676 13.9097 4.55844 13.6744 4.74142 13.4914C4.92441 13.3084 5.15967 13.1868 5.41475 13.1432C5.66984 13.0996 5.93216 13.1362 6.16552 13.2481C6.39889 13.3599 6.59179 13.5414 6.71761 13.7675C6.84343 13.9937 6.89597 14.2533 6.86797 14.5105C6.83716 14.7937 6.71058 15.0578 6.50919 15.2592C6.3078 15.4606 6.04368 15.5872 5.76055 15.618ZM9.21875 11.25H4.375C4.20924 11.25 4.05027 11.1842 3.93306 11.0669C3.81585 10.9497 3.75 10.7908 3.75 10.625V5.625C3.75 5.45924 3.81585 5.30027 3.93306 5.18306C4.05027 5.06585 4.20924 5 4.375 5H9.21875C9.26019 5 9.29993 5.01646 9.32924 5.04576C9.35854 5.07507 9.375 5.11481 9.375 5.15625V11.0938C9.375 11.1352 9.35854 11.1749 9.32924 11.2042C9.29993 11.2335 9.26019 11.25 9.21875 11.25ZM10 3.75H4.39297C4.05703 3.75 3.76797 3.49219 3.75078 3.15664C3.74649 3.07201 3.75946 2.98739 3.78889 2.90792C3.81832 2.82845 3.86361 2.7558 3.922 2.69438C3.98038 2.63296 4.05065 2.58406 4.12852 2.55064C4.2064 2.51723 4.29026 2.5 4.375 2.5H15.607C15.943 2.5 16.232 2.75781 16.2492 3.09336C16.2535 3.17799 16.2405 3.26261 16.2111 3.34208C16.1817 3.42155 16.1364 3.4942 16.078 3.55562C16.0196 3.61704 15.9494 3.66594 15.8715 3.69936C15.7936 3.73277 15.7097 3.75 15.625 3.75H10ZM10.7812 5H15.625C15.7908 5 15.9497 5.06585 16.0669 5.18306C16.1842 5.30027 16.25 5.45924 16.25 5.625V10.625C16.25 10.7908 16.1842 10.9497 16.0669 11.0669C15.9497 11.1842 15.7908 11.25 15.625 11.25H10.7812C10.7398 11.25 10.7001 11.2335 10.6708 11.2042C10.6415 11.1749 10.625 11.1352 10.625 11.0938V5.15625C10.625 5.11481 10.6415 5.07507 10.6708 5.04576C10.7001 5.01646 10.7398 5 10.7812 5ZM13.132 14.5105C13.104 14.2533 13.1566 13.9937 13.2824 13.7675C13.4082 13.5414 13.6011 13.3599 13.8345 13.2481C14.0678 13.1362 14.3302 13.0996 14.5852 13.1432C14.8403 13.1868 15.0756 13.3084 15.2586 13.4914C15.4416 13.6744 15.5632 13.9097 15.6068 14.1648C15.6504 14.4198 15.6138 14.6822 15.5019 14.9155C15.3901 15.1489 15.2086 15.3418 14.9825 15.4676C14.7563 15.5934 14.4967 15.646 14.2395 15.618C13.9563 15.5872 13.6922 15.4606 13.4908 15.2592C13.2894 15.0578 13.1628 14.7937 13.132 14.5105Z" fill="#8E44F7"/>
</svg>
