<svg width="30" height="30" viewBox="0 0 30 30" fill="none" xmlns="http://www.w3.org/2000/svg">
<path d="M9.24375 16.7163L5 22.0919V25H26.25V26.25H4.375C4.20924 26.25 4.05027 26.1842 3.93306 26.0669C3.81585 25.9497 3.75 25.7908 3.75 25.625V4.375H5V20.075L8.33125 15.8556C8.20271 15.6045 8.1325 15.3276 8.12585 15.0455C8.1192 14.7635 8.17628 14.4836 8.29284 14.2267C8.4094 13.9698 8.58244 13.7425 8.79905 13.5617C9.01567 13.381 9.27028 13.2514 9.54391 13.1827C9.81755 13.1141 10.1032 13.108 10.3794 13.1651C10.6557 13.2221 10.9156 13.3408 11.1397 13.5122C11.3637 13.6836 11.5462 13.9034 11.6735 14.1552C11.8009 14.4069 11.8697 14.6842 11.875 14.9662L16.0206 16.3475C16.2651 16.0327 16.6036 15.8042 16.9869 15.6952C17.3702 15.5861 17.7784 15.6023 18.1519 15.7413L22.1381 10.9581C21.9121 10.5779 21.8278 10.13 21.9001 9.69366C21.9723 9.25728 22.1966 8.86051 22.5331 8.57347C22.8696 8.28643 23.2968 8.1276 23.7391 8.12507C24.1814 8.12254 24.6104 8.27646 24.9502 8.55963C25.29 8.84279 25.5188 9.23697 25.596 9.67249C25.6733 10.108 25.5941 10.5568 25.3725 10.9396C25.1508 11.3224 24.801 11.6145 24.3848 11.7643C23.9686 11.914 23.5129 11.9119 23.0981 11.7581L19.1119 16.5419C19.2585 16.7887 19.3464 17.066 19.3689 17.3522C19.3914 17.6384 19.3479 17.926 19.2417 18.1928C19.1355 18.4595 18.9694 18.6983 18.7564 18.8907C18.5433 19.0832 18.2888 19.2241 18.0127 19.3026C17.7365 19.3812 17.446 19.3953 17.1636 19.3438C16.8811 19.2924 16.6142 19.1767 16.3835 19.0058C16.1528 18.8349 15.9645 18.6133 15.833 18.358C15.7014 18.1028 15.6303 17.8208 15.625 17.5338L11.4794 16.1525C11.2231 16.4825 10.8638 16.7173 10.4587 16.8194C10.0535 16.9216 9.62586 16.8853 9.24375 16.7163Z" fill="#734199"/>
</svg>
