<svg width="20" height="20" viewBox="0 0 20 20" fill="none" xmlns="http://www.w3.org/2000/svg">
<path fill-rule="evenodd" clip-rule="evenodd" d="M11.0461 1.81619C10.0156 1.69145 8.97346 1.92338 8.09311 2.47336C7.21397 3.02153 6.54937 3.85456 6.21015 4.83348C6.12422 5.0581 5.97352 5.25215 5.77717 5.39102C5.58082 5.52989 5.34765 5.60733 5.10724 5.61352C4.16666 5.68324 3.29099 6.11928 2.66854 6.82787C2.31875 7.22778 2.06251 7.70063 1.91846 8.21203C1.77441 8.72343 1.74617 9.26051 1.8358 9.78419C1.92543 10.3079 2.13067 10.805 2.4366 11.2394C2.74252 11.6738 3.14143 12.0345 3.6043 12.2953C3.70711 12.3518 3.7978 12.4279 3.87117 12.5195C3.94455 12.611 3.99918 12.716 4.03194 12.8287C4.06471 12.9413 4.07497 13.0593 4.06215 13.1759C4.04932 13.2925 4.01365 13.4054 3.95718 13.5082C3.90071 13.611 3.82454 13.7017 3.73302 13.7751C3.6415 13.8485 3.53643 13.9031 3.4238 13.9359C3.31117 13.9686 3.19319 13.9789 3.07659 13.9661C2.96 13.9532 2.84707 13.9176 2.74426 13.8611C1.75993 13.311 0.974074 12.4647 0.498427 11.4423C0.0227797 10.42 -0.118443 9.27367 0.0948389 8.16644C0.308121 7.0592 0.865051 6.0474 1.68644 5.27488C2.50782 4.50237 3.55185 4.00848 4.67007 3.86343C5.07722 2.90206 5.71572 2.05624 6.52875 1.40127C7.34179 0.746299 8.30414 0.302486 9.33015 0.10933C10.3562 -0.0838251 11.414 -0.0203315 12.4096 0.29416C13.4051 0.608652 14.3075 1.16439 15.0363 1.9119C15.9495 2.84844 16.5478 4.04654 16.7478 5.33922C17.6043 5.61786 18.363 6.13613 18.934 6.83265C19.505 7.52917 19.8644 8.37475 19.9696 9.26924C20.0748 10.1637 19.9215 11.0696 19.5277 11.8797C19.134 12.6897 18.5163 13.3699 17.7479 13.8397C17.6479 13.901 17.5368 13.9421 17.4209 13.9605C17.3051 13.9789 17.1867 13.9743 17.0726 13.947C16.9585 13.9196 16.8509 13.8701 16.756 13.8012C16.6611 13.7323 16.5806 13.6454 16.5193 13.5454C16.4579 13.4454 16.4169 13.3343 16.3984 13.2184C16.38 13.1025 16.3846 12.9842 16.412 12.8701C16.4393 12.756 16.4888 12.6484 16.5577 12.5535C16.6266 12.4585 16.7136 12.3781 16.8136 12.3167C17.1923 12.0835 17.5133 11.7674 17.7523 11.3923C17.9913 11.0172 18.1422 10.5927 18.1936 10.1509C18.275 9.43684 18.091 8.71778 17.6766 8.13058C17.2622 7.54339 16.6464 7.12906 15.9464 6.96645L15.8964 6.95217C15.6704 6.88476 15.4682 6.75444 15.3135 6.57643C15.1485 6.38495 15.0459 6.14915 15.0192 5.89783C14.9238 4.86694 14.4781 3.89986 13.7563 3.15768C13.0326 2.41416 12.0762 1.94076 11.0461 1.81619ZM11.1404 10.5695C10.8618 9.32658 9.1003 9.33515 8.83172 10.5795L8.80314 10.7181C8.64956 11.455 8.2798 12.1294 7.74108 12.6551C7.20235 13.1809 6.51914 13.5341 5.7787 13.6697C4.49863 13.8968 4.49863 15.7455 5.7787 15.9726C6.5194 16.1079 7.20293 16.461 7.74192 16.9868C8.28092 17.5126 8.6509 18.1871 8.80457 18.9242L8.83315 19.0628C9.10173 20.3057 10.8618 20.3157 11.1418 19.0728L11.1776 18.9114C11.3381 18.177 11.712 17.5063 12.2524 16.9838C12.7927 16.4612 13.4755 16.1099 14.2149 15.9741C15.4978 15.7469 15.4978 13.8954 14.2149 13.6682C13.4755 13.5324 12.7927 13.1811 12.2524 12.6585C11.712 12.136 11.3381 11.4653 11.1776 10.7309L11.1404 10.5695Z" fill="url(#paint0_linear_609_3281)"/>
<defs>
<linearGradient id="paint0_linear_609_3281" x1="9.99997" y1="20" x2="9.99997" y2="0" gradientUnits="userSpaceOnUse">
<stop stop-color="#00FBAC"/>
<stop offset="1" stop-color="#00CCFF"/>
</linearGradient>
</defs>
</svg>
