<svg width="16" height="12" viewBox="0 0 16 12" fill="none" xmlns="http://www.w3.org/2000/svg">
<path d="M5.55677 9.16245L14.0318 0.687451C14.2318 0.487451 14.4651 0.387451 14.7318 0.387451C14.9984 0.387451 15.2318 0.487451 15.4318 0.687451C15.6318 0.887451 15.7318 1.12512 15.7318 1.40045C15.7318 1.67578 15.6318 1.91312 15.4318 2.11245L6.25677 11.3125C6.05677 11.5125 5.82344 11.6125 5.55677 11.6125C5.29011 11.6125 5.05677 11.5125 4.85677 11.3125L0.556772 7.01245C0.356772 6.81245 0.260772 6.57512 0.268772 6.30045C0.276772 6.02578 0.381105 5.78812 0.581772 5.58745C0.782439 5.38678 1.02011 5.28678 1.29477 5.28745C1.56944 5.28812 1.80677 5.38812 2.00677 5.58745L5.55677 9.16245Z" fill="#641698"/>
</svg>
