<svg width="24" height="24" viewBox="0 0 24 24" fill="none" xmlns="http://www.w3.org/2000/svg">
<path d="M7.64021 12.825L8.58021 10.895C8.72154 10.6217 8.92288 10.404 9.18421 10.242C9.44488 10.0807 9.72821 10 10.0342 10H11.5002V3H17.1922L16.4422 4.5L17.1922 6H12.5002V10H13.8902C14.1969 10 14.4785 10.0807 14.7352 10.242C14.9925 10.4033 15.1939 10.6187 15.3392 10.888L16.3092 12.869L13.9632 14.427L12.0002 13.433L10.0362 14.427L7.64021 12.825ZM3.61621 21L7.20321 13.721L9.96521 15.573L12.0002 14.567L14.0362 15.573L16.7672 13.771L20.3852 21H3.61621Z" fill="#21C6B2"/>
</svg>
