<svg width="14" height="15" viewBox="0 0 14 15" fill="none" xmlns="http://www.w3.org/2000/svg">
<path d="M7 6C8.275 6 9.295 4.9875 9.295 3.75C9.295 2.5125 8.275 1.5 7 1.5C5.725 1.5 4.705 2.5125 4.705 3.75C4.705 4.9875 5.725 6 7 6ZM7 7.5C4.9 7.5 3.205 5.82 3.205 3.75C3.205 1.68 4.9 0 7 0C9.1 0 10.795 1.68 10.795 3.75C10.795 5.82 9.1 7.5 7 7.5ZM1.75 13.5H12.25V12.5025C12.25 11.19 10.5175 9.8325 7 9.8325C3.4825 9.8325 1.75 11.19 1.75 12.5025V13.5ZM7 8.3325C11.995 8.3325 13.75 10.83 13.75 12.5025V15H0.25V12.5025C0.25 10.83 2.005 8.3325 7 8.3325Z" fill="white"/>
</svg>
