<svg width="24" height="24" viewBox="0 0 24 24" fill="none" xmlns="http://www.w3.org/2000/svg">
<path fill-rule="evenodd" clip-rule="evenodd" d="M24 8.11144C24 7.93478 23.965 7.75986 23.897 7.59667C23.8289 7.43349 23.7292 7.28524 23.6036 7.16041C23.4779 7.03558 23.3287 6.93661 23.1646 6.86917C23.0004 6.80173 22.8245 6.76714 22.6469 6.76737C21.5838 6.77096 19.9064 6.42867 17.274 5.3821C17.1092 5.31655 16.933 5.28394 16.7556 5.28611C16.5781 5.28829 16.4028 5.32521 16.2397 5.39477C16.0765 5.46433 15.9288 5.56516 15.8048 5.69152C15.6809 5.81787 15.5832 5.96727 15.5173 6.13119C15.4514 6.2951 15.4186 6.47032 15.4208 6.64684C15.423 6.82336 15.4601 6.99772 15.53 7.15997C15.6 7.32222 15.7013 7.46918 15.8284 7.59246C15.9554 7.71574 16.1056 7.81292 16.2704 7.87846C19.0217 8.97163 21.0757 9.45908 22.6505 9.4555C23.0086 9.45502 23.3518 9.31321 23.6048 9.0612C23.8579 8.80919 24 8.46759 24 8.11144ZM7.78952 17.312C7.72365 17.4759 7.62595 17.6253 7.50201 17.7517C7.37807 17.8781 7.23031 17.9789 7.06718 18.0485C6.90404 18.118 6.72873 18.155 6.55125 18.1571C6.37377 18.1593 6.1976 18.1266 6.0328 18.0611C3.84186 17.1883 2.30315 16.803 1.2257 16.7027C0.868735 16.6694 0.539684 16.4965 0.310928 16.2219C0.0821721 15.9473 -0.0275496 15.5936 0.0059004 15.2385C0.0393504 14.8835 0.213232 14.5562 0.489293 14.3287C0.765355 14.1012 1.12098 13.992 1.47794 14.0253C2.91935 14.1597 4.72652 14.6454 7.03819 15.5665C7.37028 15.6992 7.6359 15.9575 7.77676 16.2847C7.91761 16.6119 7.9222 16.9814 7.78952 17.312ZM8.13727 6.32294C8.01355 6.19089 7.86436 6.08497 7.6986 6.01151C7.53284 5.93805 7.3539 5.89855 7.17246 5.89536C6.99102 5.89218 6.81079 5.92538 6.64252 5.99298C6.47426 6.06057 6.32141 6.16119 6.19309 6.28882C6.06477 6.41645 5.96361 6.56848 5.89565 6.73584C5.82768 6.9032 5.79431 7.08246 5.79751 7.26293C5.80071 7.44339 5.84042 7.62137 5.91428 7.78624C5.98814 7.95111 6.09463 8.0995 6.22739 8.22254L15.1732 17.1274C15.2969 17.2594 15.4461 17.3654 15.6118 17.4388C15.7776 17.5123 15.9565 17.5518 16.138 17.555C16.3194 17.5582 16.4996 17.525 16.6679 17.4574C16.8362 17.3898 16.989 17.2891 17.1173 17.1615C17.2456 17.0339 17.3468 16.8819 17.4148 16.7145C17.4827 16.5471 17.5161 16.3679 17.5129 16.1874C17.5097 16.0069 17.47 15.829 17.3961 15.6641C17.3223 15.4992 17.2158 15.3508 17.083 15.2278L8.13727 6.32294Z" fill="#8E44F7"/>
<path fill-rule="evenodd" clip-rule="evenodd" d="M16.6521 1.24056C16.6244 0.885046 16.4559 0.555042 16.1835 0.323146C15.9112 0.0912507 15.5574 -0.0235399 15.1999 0.00402685C14.8425 0.0315936 14.5107 0.19926 14.2775 0.470141C14.0444 0.741022 13.929 1.09293 13.9567 1.44844C14.0702 2.90899 14.5621 4.75304 15.517 7.12934C16.499 9.56837 16.7368 11.2404 16.5981 12.4429C16.463 13.5934 15.9675 14.4392 15.1765 15.226C14.2756 16.122 13.2774 16.6614 11.7766 16.6758C11.4182 16.6793 11.0759 16.8244 10.825 17.0789C10.5741 17.3335 10.4352 17.6768 10.4388 18.0333C10.4423 18.3897 10.5882 18.7302 10.8441 18.9797C11.1001 19.2293 11.4452 19.3674 11.8036 19.3639C14.1207 19.3424 15.7693 18.4374 17.0882 17.1274C18.2161 16.0055 19.0647 14.6238 19.2827 12.7511C19.4935 10.9321 19.0935 8.78343 18.0269 6.13115C17.1188 3.87313 16.735 2.31402 16.6521 1.24056ZM11.8234 4.0828C12.0009 4.08716 12.1757 4.12623 12.338 4.1978C12.5003 4.26937 12.6468 4.37203 12.7692 4.49991C12.8916 4.6278 12.9874 4.77841 13.0513 4.94315C13.1152 5.10788 13.1458 5.28351 13.1414 5.46002C13.137 5.63652 13.0977 5.81044 13.0258 5.97185C12.9538 6.13325 12.8506 6.27897 12.722 6.4007C12.5935 6.52243 12.442 6.61778 12.2764 6.6813C12.1108 6.74483 11.9342 6.77528 11.7568 6.77093C10.1207 6.72971 9.06852 7.28346 8.1298 8.21714C7.33882 9.00565 6.84334 9.85151 6.71001 11.002C6.56947 12.2027 6.80911 13.8747 7.79107 16.3138C8.89014 19.0485 9.38022 21.0932 9.37662 22.6577C9.37614 23.0142 9.23331 23.3559 8.97955 23.6076C8.72579 23.8593 8.38189 24.0005 8.02349 24C7.6651 23.9995 7.32158 23.8575 7.06849 23.6051C6.81541 23.3527 6.67349 23.0106 6.67397 22.6541C6.67577 21.5968 6.33164 19.9302 5.28121 17.3119C4.21456 14.6597 3.81277 12.5128 4.02538 10.692C4.24159 8.81928 5.09202 7.43937 6.21993 6.31753C7.60549 4.93763 9.34599 4.02187 11.8234 4.0828Z" fill="#FF6F61"/>
</svg>
