<svg width="20" height="20" viewBox="0 0 20 20" fill="none" xmlns="http://www.w3.org/2000/svg">
<rect width="20" height="20" rx="4" fill="white"/>
<path d="M11.688 12.7002C11.6523 12.2101 11.6422 11.7185 11.6579 11.2273L11.6573 11.2489C12.0928 10.7938 12.3644 10.2048 12.4289 9.57592L12.43 9.56367C12.6263 9.54733 12.936 9.35483 13.0263 8.59183C13.0533 8.46043 13.0429 8.324 12.9963 8.19828C12.9497 8.07256 12.8688 7.96269 12.7629 7.88133L12.7612 7.88017C13.0807 6.91183 13.7441 3.91583 11.5334 3.60667C11.3059 3.20417 10.7236 3 9.96643 3C6.93726 3.056 6.572 5.30475 7.23422 7.88017C7.12718 7.96203 7.04554 8.07297 6.99889 8.19996C6.95224 8.32695 6.9425 8.46472 6.97083 8.59708L6.97026 8.59242C7.06287 9.35425 7.37025 9.54792 7.56648 9.56425C7.6354 10.2001 7.9157 10.7939 8.36183 11.2489C8.37614 11.7487 8.36493 12.2489 8.32826 12.7475L8.33115 12.7002C7.7303 14.3242 3.68523 13.8681 3.5 17H16.5C16.3136 13.8681 12.2871 14.3242 11.6874 12.7002H11.688Z" fill="#F5B942"/>
</svg>
