<svg width="20" height="20" viewBox="0 0 20 20" fill="none" xmlns="http://www.w3.org/2000/svg">
<rect width="20" height="20" rx="4" fill="white"/>
<path d="M16.504 12.2871L13.1269 10.6509L11.6989 9.95893C11.7347 9.93593 11.7688 9.90987 11.8039 9.88555H13.679C13.8184 9.88544 13.9521 9.82914 14.0506 9.72902C14.1492 9.62889 14.2046 9.49313 14.2047 9.35154V7.94642H14.2C14.1426 5.98823 13.473 4.2655 12.4675 3.18521C11.9372 2.57782 11.2499 2.16515 10.4811 2.04184C10.4469 2.036 10.4125 2.03081 10.378 2.02628C10.3385 2.02103 10.2987 2.01657 10.2588 2.01292C10.1726 2.00484 10.0861 2.00053 9.99957 2H9.99914C9.91331 2 9.82856 2.00504 9.74402 2.01249C9.70348 2.01628 9.66323 2.02081 9.62326 2.02607C9.58962 2.03045 9.55619 2.03541 9.52298 2.04096C8.76044 2.16209 8.07791 2.5684 7.54914 3.16703C6.53386 4.24622 5.85693 5.97706 5.79914 7.94664H5.79461V9.35176C5.79472 9.49335 5.85015 9.62911 5.94872 9.72924C6.0473 9.82936 6.18096 9.88566 6.32036 9.88577H8.20062C8.25194 9.92126 8.30305 9.9574 8.3561 9.98981L6.98845 10.6366L3.50182 12.286C3.19883 12.4301 3 12.7771 3 13.1645V17.0557C3 17.5773 3.35776 18 3.79963 18H16.2004C16.6422 18 17 17.5773 17 17.0557V13.1641C16.9998 12.7779 16.804 12.4343 16.504 12.2871Z" fill="#FF6F61"/>
</svg>
