<svg width="24" height="24" viewBox="0 0 24 24" fill="none" xmlns="http://www.w3.org/2000/svg">
<g clip-path="url(#clip0_776_17669)">
<path fill-rule="evenodd" clip-rule="evenodd" d="M13.0599 7.93999C12.7787 7.65909 12.3974 7.50131 11.9999 7.50131C11.6024 7.50131 11.2212 7.65909 10.9399 7.93999L5.2819 13.596C5.00064 13.8774 4.84268 14.259 4.84277 14.6568C4.84287 15.0547 5.00101 15.4362 5.2824 15.7175C5.56379 15.9988 5.9454 16.1567 6.34325 16.1566C6.74111 16.1565 7.12264 15.9984 7.4039 15.717L11.9999 11.121L16.5959 15.717C16.8787 15.9904 17.2575 16.1417 17.6508 16.1385C18.0441 16.1353 18.4204 15.9777 18.6986 15.6997C18.9769 15.4217 19.1348 15.0456 19.1384 14.6523C19.142 14.259 18.991 13.88 18.7179 13.597L13.0609 7.93899L13.0599 7.93999Z" fill="#641698"/>
</g>
<defs>
<clipPath id="clip0_776_17669">
<rect width="24" height="24" fill="white"/>
</clipPath>
</defs>
</svg>
