<svg width="40" height="40" viewBox="0 0 40 40" fill="none" xmlns="http://www.w3.org/2000/svg">
<g clip-path="url(#clip0_2246_3303)">
<circle cx="20" cy="20" r="19.5" fill="url(#paint0_radial_2246_3303)" stroke="black"/>
<path d="M23.443 13.9022C23.4779 13.9833 23.5303 14.0645 23.6 14.1186L30.7519 17.0583C30.7519 17.0583 30.7955 17.1034 30.8042 17.1394C30.8217 17.2206 30.7693 17.3108 30.6734 17.3198L23.8181 18.1223C23.8181 18.1223 23.7396 18.1404 23.7047 18.1494C23.539 18.2125 23.4081 18.3478 23.3558 18.5281L21.123 26.4184V26.4454L20.9922 26.8692C20.9922 26.8873 20.9748 26.9143 20.9573 26.9323C20.9399 26.9504 20.9137 26.9684 20.8875 26.9774C20.8178 26.9955 20.7393 26.9774 20.7218 26.8873L19.5531 19.998C19.5531 19.998 19.5357 19.9258 19.5182 19.8988C19.4746 19.7815 19.3787 19.6914 19.2566 19.6553L19.1345 19.6192L13.9624 18.0322L11.2412 17.1935C11.2412 17.1935 11.1715 17.1485 11.1627 17.1214C11.1453 17.0493 11.1802 16.9501 11.2848 16.932L17.5296 15.5614C17.7215 15.5253 17.8785 15.372 17.9396 15.1827L19.5269 10.1059L20.6346 6.553C20.6346 6.553 20.6695 6.48987 20.6957 6.47184C20.7654 6.41774 20.8614 6.43577 20.8875 6.52594L23.443 13.9022Z" fill="url(#paint1_linear_2246_3303)"/>
<path d="M20.6959 6.47168L19.0823 14.5423C18.9602 15.1284 18.2613 15.5777 17.7031 15.4965C17.7031 15.4965 17.8787 15.3538 17.9398 15.1645C18.2276 14.2447 19.091 11.4854 19.5271 10.0877C19.8934 8.90638 20.2598 7.7251 20.6261 6.55284C20.6348 6.51677 20.661 6.48971 20.6871 6.47168H20.6959Z" fill="url(#paint2_linear_2246_3303)"/>
<path d="M30.7519 17.0579C30.7519 17.0579 30.7955 17.103 30.8042 17.1391L24.071 15.2995C23.5651 15.1733 23.3209 14.5782 23.5215 14.0371L23.6 14.1183L30.7519 17.0579Z" fill="url(#paint3_linear_2246_3303)"/>
<path d="M23.7134 18.1224V18.1585C23.5389 18.2216 23.4081 18.3569 23.3558 18.5372L21.123 26.4275V26.4545L20.966 26.9415C20.9486 26.9595 20.9224 26.9775 20.8962 26.9866L22.4836 19.0512C22.597 18.4561 23.1552 18.0413 23.7134 18.1224Z" fill="url(#paint4_linear_2246_3303)"/>
<path d="M19.5357 19.9075C19.4921 19.7812 19.3961 19.6911 19.274 19.655L19.1519 19.6189L13.9799 18.0319L11.2587 17.1932C11.2587 17.1932 11.1889 17.1481 11.1802 17.1211L18.8554 18.4917C19.3961 18.5909 19.7275 19.3394 19.5444 19.9165L19.5357 19.9075Z" fill="url(#paint5_linear_2246_3303)"/>
<g opacity="0.4">
<path d="M16.7534 26.5497C16.7708 26.5948 16.797 26.6399 16.8406 26.667L20.6695 28.245C20.6695 28.245 20.6956 28.2721 20.6956 28.2901C20.6956 28.3352 20.6782 28.3803 20.6259 28.3893L16.954 28.8131C16.954 28.8131 16.9104 28.8131 16.8929 28.8311C16.8057 28.8582 16.7359 28.9394 16.7098 29.0295L15.5149 33.2497V33.2677L15.4451 33.4931C15.4451 33.5022 15.4364 33.5202 15.4277 33.5292C15.4189 33.5382 15.4015 33.5473 15.3928 33.5563C15.3579 33.5653 15.3143 33.5563 15.3056 33.5022L14.6776 29.814C14.6776 29.814 14.6689 29.778 14.6601 29.7599C14.634 29.6968 14.5817 29.6517 14.5206 29.6247L14.4595 29.6066L11.6947 28.759L10.2382 28.3081C10.2382 28.3081 10.2033 28.2901 10.1946 28.2721C10.1859 28.236 10.2033 28.1819 10.2556 28.1729L13.5961 27.4334C13.7008 27.4154 13.788 27.3343 13.8141 27.226L14.6689 24.5028L15.262 22.6091C15.262 22.6091 15.2794 22.5731 15.2968 22.564C15.3317 22.537 15.3841 22.546 15.4015 22.5911L16.7708 26.5407L16.7534 26.5497Z" fill="url(#paint6_linear_2246_3303)"/>
<path d="M15.2881 22.5735L14.4246 26.8928C14.3636 27.2084 13.9886 27.4339 13.692 27.3888C13.692 27.3888 13.788 27.3256 13.8141 27.2265C13.9711 26.7305 14.4334 25.2607 14.6689 24.5032C14.8695 23.872 15.0613 23.2408 15.2619 22.6095C15.2619 22.5915 15.2794 22.5735 15.2968 22.5645L15.2881 22.5735Z" fill="url(#paint7_linear_2246_3303)"/>
<path d="M20.6695 28.245C20.6695 28.245 20.6957 28.272 20.6957 28.2901L17.0935 27.3072C16.8232 27.235 16.6923 26.9194 16.797 26.6309L16.8406 26.6759L20.6695 28.254V28.245Z" fill="url(#paint8_linear_2246_3303)"/>
<path d="M16.9016 28.8134V28.8314C16.8057 28.8584 16.7359 28.9396 16.7098 29.0298L15.5149 33.2499V33.268L15.4276 33.5295C15.4189 33.5385 15.4015 33.5475 15.3928 33.5565L16.2388 29.3093C16.2998 28.9937 16.5964 28.7683 16.8929 28.8134H16.9016Z" fill="url(#paint9_linear_2246_3303)"/>
<path d="M14.6601 29.7691C14.6339 29.706 14.5816 29.6519 14.5205 29.6339L14.4595 29.6158L11.6947 28.7682L10.2381 28.3173C10.2381 28.3173 10.2032 28.2993 10.1945 28.2812L14.3025 29.0117C14.5903 29.0658 14.7647 29.4625 14.6688 29.7691H14.6601Z" fill="url(#paint10_linear_2246_3303)"/>
</g>
<g opacity="0.73">
<path d="M27.891 21.3075C27.891 21.3075 27.9251 21.3604 27.9479 21.3839L30.3659 22.4898C30.3659 22.4898 30.3829 22.5074 30.3829 22.5192C30.3886 22.5427 30.3716 22.578 30.3431 22.578L28.0844 22.7192C28.0844 22.7192 28.0617 22.7192 28.0446 22.7251C27.9934 22.7427 27.9479 22.7898 27.9365 22.8427L27.3334 25.4191V25.4309L27.2993 25.5721C27.2993 25.5779 27.2993 25.5838 27.2879 25.5897C27.2822 25.5956 27.2765 25.6015 27.2652 25.6015C27.2424 25.6015 27.214 25.6015 27.2083 25.5662L26.7019 23.2604C26.7019 23.2604 26.6962 23.2368 26.6905 23.2251C26.6735 23.1839 26.6393 23.1545 26.5995 23.1368L26.5597 23.1251L24.8187 22.5016L23.9027 22.1721C23.9027 22.1721 23.88 22.1545 23.8743 22.1486C23.8686 22.1251 23.8743 22.0898 23.9084 22.0839L25.9566 21.7427C26.0192 21.731 26.0704 21.6839 26.0875 21.6251L26.5255 19.9722L26.8271 18.8193C26.8271 18.8193 26.8385 18.8017 26.8441 18.7958C26.8669 18.7781 26.901 18.784 26.9067 18.8193L27.8796 21.3133L27.891 21.3075Z" fill="url(#paint11_linear_2246_3303)"/>
<path d="M26.8497 18.7959L26.4571 21.4429C26.4287 21.637 26.2011 21.7664 26.019 21.7252C26.019 21.7252 26.0759 21.6899 26.093 21.6252C26.1727 21.3252 26.4116 20.4253 26.5311 19.9723C26.6335 19.59 26.7359 19.2018 26.8326 18.8194C26.8326 18.8077 26.844 18.8018 26.8497 18.7959Z" fill="url(#paint12_linear_2246_3303)"/>
<path d="M30.3655 22.4898C30.3655 22.4898 30.3826 22.5074 30.3826 22.5192L28.1182 21.7839C27.9476 21.731 27.8565 21.531 27.9134 21.3545L27.9419 21.3839L30.3598 22.4898H30.3655Z" fill="url(#paint13_linear_2246_3303)"/>
<path d="M28.05 22.7137V22.7254C27.9931 22.7431 27.9532 22.7902 27.9362 22.8431L27.3331 25.4195V25.4313L27.2876 25.5901C27.2819 25.596 27.2762 25.6018 27.2648 25.6018L27.6517 23.0019C27.6802 22.8078 27.8565 22.6784 28.0443 22.7196L28.05 22.7137Z" fill="url(#paint14_linear_2246_3303)"/>
<path d="M26.6959 23.2307C26.6789 23.1896 26.6447 23.1543 26.6049 23.1425L26.5651 23.1307L24.8241 22.5072L23.9081 22.1778C23.9081 22.1778 23.8854 22.1602 23.8797 22.1543L26.4456 22.7484C26.6277 22.7896 26.7471 23.0425 26.6959 23.2307Z" fill="url(#paint15_linear_2246_3303)"/>
</g>
</g>
<rect x="0.5" y="0.5" width="39" height="39" rx="19.5" stroke="#FBF0FF"/>
<defs>
<radialGradient id="paint0_radial_2246_3303" cx="0" cy="0" r="1" gradientUnits="userSpaceOnUse" gradientTransform="translate(1.5 21) rotate(-180) scale(37.5 40.7782)">
<stop stop-color="#9C07C1"/>
<stop offset="1" stop-color="#550973"/>
</radialGradient>
<linearGradient id="paint1_linear_2246_3303" x1="17.6005" y1="20.273" x2="27.8998" y2="10.3112" gradientUnits="userSpaceOnUse">
<stop stop-color="#42B6E9"/>
<stop offset="0.38" stop-color="#F06CA8"/>
<stop offset="0.68" stop-color="#F68C1E"/>
<stop offset="0.99" stop-color="#F8EC20"/>
</linearGradient>
<linearGradient id="paint2_linear_2246_3303" x1="18.1386" y1="12.4349" x2="24.1583" y2="6.6125" gradientUnits="userSpaceOnUse">
<stop stop-color="#42B6E9"/>
<stop offset="0.38" stop-color="#F06CA8"/>
<stop offset="0.68" stop-color="#F68C1E"/>
<stop offset="0.99" stop-color="#F8EC20"/>
</linearGradient>
<linearGradient id="paint3_linear_2246_3303" x1="28.7232" y1="15.6211" x2="28.535" y2="12.1293" gradientUnits="userSpaceOnUse">
<stop stop-color="#42B6E9"/>
<stop offset="0.38" stop-color="#F06CA8"/>
<stop offset="0.68" stop-color="#F68C1E"/>
<stop offset="0.99" stop-color="#F8EC20"/>
</linearGradient>
<linearGradient id="paint4_linear_2246_3303" x1="23.7711" y1="25.1665" x2="23.3096" y2="16.4761" gradientUnits="userSpaceOnUse">
<stop stop-color="#42B6E9"/>
<stop offset="0.38" stop-color="#F06CA8"/>
<stop offset="0.68" stop-color="#F68C1E"/>
<stop offset="0.99" stop-color="#F8EC20"/>
</linearGradient>
<linearGradient id="paint5_linear_2246_3303" x1="16.9818" y1="18.3873" x2="16.8073" y2="15.1497" gradientUnits="userSpaceOnUse">
<stop stop-color="#42B6E9"/>
<stop offset="0.38" stop-color="#F06CA8"/>
<stop offset="0.68" stop-color="#F68C1E"/>
<stop offset="0.99" stop-color="#F8EC20"/>
</linearGradient>
<linearGradient id="paint6_linear_2246_3303" x1="14.4478" y1="29.1135" x2="19.9583" y2="23.7837" gradientUnits="userSpaceOnUse">
<stop stop-color="#42B6E9"/>
<stop offset="0.38" stop-color="#F06CA8"/>
<stop offset="0.68" stop-color="#F68C1E"/>
<stop offset="0.99" stop-color="#F8EC20"/>
</linearGradient>
<linearGradient id="paint7_linear_2246_3303" x1="14.7307" y1="24.9191" x2="17.9563" y2="21.7993" gradientUnits="userSpaceOnUse">
<stop stop-color="#42B6E9"/>
<stop offset="0.38" stop-color="#F06CA8"/>
<stop offset="0.68" stop-color="#F68C1E"/>
<stop offset="0.99" stop-color="#F8EC20"/>
</linearGradient>
<linearGradient id="paint8_linear_2246_3303" x1="20.4005" y1="26.619" x2="20.3003" y2="24.7594" gradientUnits="userSpaceOnUse">
<stop stop-color="#42B6E9"/>
<stop offset="0.38" stop-color="#F06CA8"/>
<stop offset="0.68" stop-color="#F68C1E"/>
<stop offset="0.99" stop-color="#F8EC20"/>
</linearGradient>
<linearGradient id="paint9_linear_2246_3303" x1="17.7483" y1="31.7334" x2="17.5045" y2="27.0832" gradientUnits="userSpaceOnUse">
<stop stop-color="#42B6E9"/>
<stop offset="0.38" stop-color="#F06CA8"/>
<stop offset="0.68" stop-color="#F68C1E"/>
<stop offset="0.99" stop-color="#F8EC20"/>
</linearGradient>
<linearGradient id="paint10_linear_2246_3303" x1="14.1158" y1="28.1051" x2="14.0227" y2="26.3793" gradientUnits="userSpaceOnUse">
<stop stop-color="#42B6E9"/>
<stop offset="0.38" stop-color="#F06CA8"/>
<stop offset="0.68" stop-color="#F68C1E"/>
<stop offset="0.99" stop-color="#F8EC20"/>
</linearGradient>
<linearGradient id="paint11_linear_2246_3303" x1="25.5253" y1="23.866" x2="28.7636" y2="20.7339" gradientUnits="userSpaceOnUse">
<stop stop-color="#42B6E9"/>
<stop offset="0.38" stop-color="#F06CA8"/>
<stop offset="0.68" stop-color="#F68C1E"/>
<stop offset="0.99" stop-color="#F8EC20"/>
</linearGradient>
<linearGradient id="paint12_linear_2246_3303" x1="25.5694" y1="21.2749" x2="27.465" y2="19.4414" gradientUnits="userSpaceOnUse">
<stop stop-color="#42B6E9"/>
<stop offset="0.38" stop-color="#F06CA8"/>
<stop offset="0.68" stop-color="#F68C1E"/>
<stop offset="0.99" stop-color="#F8EC20"/>
</linearGradient>
<linearGradient id="paint13_linear_2246_3303" x1="29.1416" y1="22.5225" x2="29.1373" y2="21.3621" gradientUnits="userSpaceOnUse">
<stop stop-color="#42B6E9"/>
<stop offset="0.38" stop-color="#F06CA8"/>
<stop offset="0.68" stop-color="#F68C1E"/>
<stop offset="0.99" stop-color="#F8EC20"/>
</linearGradient>
<linearGradient id="paint14_linear_2246_3303" x1="27.6571" y1="25.605" x2="27.6571" y2="22.7101" gradientUnits="userSpaceOnUse">
<stop stop-color="#42B6E9"/>
<stop offset="0.38" stop-color="#F06CA8"/>
<stop offset="0.68" stop-color="#F68C1E"/>
<stop offset="0.99" stop-color="#F8EC20"/>
</linearGradient>
<linearGradient id="paint15_linear_2246_3303" x1="25.2876" y1="23.2294" x2="25.2876" y2="22.1563" gradientUnits="userSpaceOnUse">
<stop stop-color="#42B6E9"/>
<stop offset="0.38" stop-color="#F06CA8"/>
<stop offset="0.68" stop-color="#F68C1E"/>
<stop offset="0.99" stop-color="#F8EC20"/>
</linearGradient>
<clipPath id="clip0_2246_3303">
<rect width="40" height="40" rx="20" fill="white"/>
</clipPath>
</defs>
</svg>
