<svg width="20" height="21" viewBox="0 0 20 21" fill="none" xmlns="http://www.w3.org/2000/svg">
<g clip-path="url(#clip0_1338_29726)">
<path d="M10.2056 6.70557C9.75598 6.70621 9.31009 6.78711 8.88892 6.94446L13.7778 11.8333C13.9371 11.4069 14.018 10.9552 14.0167 10.5C14.0123 9.49213 13.6088 8.52704 12.8946 7.81592C12.1803 7.10479 11.2135 6.70556 10.2056 6.70557Z" fill="#A7A7A7"/>
<path d="M19.0501 10.2389C17.1779 6.77779 13.8945 4.68335 10.2612 4.68335C9.27194 4.68548 8.28931 4.84488 7.3501 5.15557L8.24454 6.05557C8.90337 5.88542 9.58077 5.79772 10.2612 5.79446C13.389 5.79446 16.2334 7.5389 17.9279 10.4778C17.3057 11.5677 16.4818 12.5293 15.5001 13.3111L16.289 14.1C17.426 13.1833 18.3701 12.0504 19.0668 10.7667L19.2112 10.5L19.0501 10.2389Z" fill="#A7A7A7"/>
<path d="M2.7056 3.71108L5.18338 6.18886C3.6169 7.19687 2.3368 8.59177 1.46671 10.2389L1.32227 10.5L1.46671 10.7666C3.33893 14.2277 6.62226 16.3222 10.2556 16.3222C11.6738 16.3225 13.0737 16.0015 14.35 15.3833L17.1278 18.1611L18.1 17.3277L3.6556 2.8833L2.7056 3.71108ZM7.31671 8.32219C6.79695 9.05519 6.55334 9.94847 6.629 10.8439C6.70466 11.7392 7.09471 12.579 7.7301 13.2144C8.36549 13.8497 9.20522 14.2398 10.1006 14.3155C10.996 14.3911 11.8893 14.1475 12.6223 13.6277L13.5112 14.5166C12.4822 14.9566 11.3747 15.1834 10.2556 15.1833C7.12782 15.1833 4.28338 13.4389 2.58893 10.5C3.40231 9.06024 4.57338 7.85472 5.98893 6.99997L7.31671 8.32219Z" fill="#A7A7A7"/>
</g>
<defs>
<clipPath id="clip0_1338_29726">
<rect width="20" height="20" fill="white" transform="translate(0 0.5)"/>
</clipPath>
</defs>
</svg>
