<svg width="18" height="19" viewBox="0 0 18 19" fill="none" xmlns="http://www.w3.org/2000/svg">
<g clip-path="url(#clip0_1623_23999)">
<path d="M16.81 9.26489C15.125 6.14989 12.17 4.26489 8.89999 4.26489C5.62999 4.26489 2.66999 6.14989 0.999985 9.26489L0.859985 9.49989L0.989985 9.73989C2.67499 12.8549 5.62999 14.7399 8.89999 14.7399C12.17 14.7399 15.13 12.8799 16.81 9.73989L16.94 9.49989L16.81 9.26489ZM8.89999 13.7149C6.08499 13.7149 3.49999 12.1449 1.99999 9.49989C3.49999 6.85489 6.08499 5.28489 8.89999 5.28489C11.715 5.28489 14.27 6.85989 15.795 9.49989C14.27 12.1449 11.71 13.7149 8.89999 13.7149Z" fill="#8E44F7"/>
<path d="M9.04499 12.945C10.9393 12.945 12.475 11.4093 12.475 9.51496C12.475 7.62062 10.9393 6.08496 9.04499 6.08496C7.15065 6.08496 5.61499 7.62062 5.61499 9.51496C5.61499 11.4093 7.15065 12.945 9.04499 12.945Z" fill="#8E44F7"/>
</g>
<defs>
<clipPath id="clip0_1623_23999">
<rect width="18" height="18" fill="white" transform="translate(0 0.5)"/>
</clipPath>
</defs>
</svg>
