<svg width="25" height="24" viewBox="0 0 25 24" fill="none" xmlns="http://www.w3.org/2000/svg">
<path d="M19.5288 14.5061L15.7704 12.7133L14.1811 11.9551C14.221 11.9299 14.2589 11.9014 14.298 11.8747H16.3848C16.5399 11.8746 16.6887 11.8129 16.7984 11.7032C16.9081 11.5935 16.9698 11.4448 16.9699 11.2896V9.75002H16.9646C16.9008 7.60442 16.1556 5.71682 15.0365 4.53314C14.4463 3.86762 13.6814 3.41546 12.8258 3.28034C12.7878 3.27394 12.7495 3.26826 12.7111 3.2633C12.6671 3.25754 12.6229 3.25266 12.5784 3.24866C12.4825 3.2398 12.3862 3.23508 12.2899 3.2345H12.2894C12.1939 3.2345 12.0996 3.24002 12.0055 3.24818C11.9604 3.25234 11.9156 3.2573 11.8711 3.26306C11.8337 3.26786 11.7965 3.2733 11.7595 3.27938C10.9109 3.4121 10.1513 3.8573 9.5628 4.51322C8.43288 5.6957 7.67952 7.59218 7.6152 9.75026H7.61016V11.2899C7.61029 11.445 7.67197 11.5938 7.78168 11.7035C7.89138 11.8132 8.04014 11.8748 8.19528 11.875H10.2878C10.345 11.9139 10.4018 11.9535 10.4609 11.989L8.9388 12.6977L5.05848 14.5049C4.72128 14.6628 4.5 15.043 4.5 15.4675V19.7311C4.5 20.3026 4.89816 20.7658 5.38992 20.7658H19.1909C19.6826 20.7658 20.0808 20.3026 20.0808 19.7311V15.4671C20.0806 15.0439 19.8626 14.6674 19.5288 14.5061Z" fill="#FF6F61"/>
</svg>
