<svg width="25" height="24" viewBox="0 0 25 24" fill="none" xmlns="http://www.w3.org/2000/svg">
<path d="M13.1201 0C12.2069 0 11.3335 0.872206 11.1747 2.13594C11.006 3.48257 11.7355 4.61127 12.7082 4.7364C13.6859 4.86152 14.6685 3.9596 14.8422 2.61088C15.0159 1.26269 14.2715 0.138156 13.3037 0.0119909C13.2442 0.00417072 13.1796 0 13.1201 0ZM11.2243 4.99185C9.33846 5.3203 7.4923 7.17628 6.5593 8.43271C5.98858 10.174 5.8397 11.9101 5.53201 13.6461L6.93151 13.6044C7.25905 12.2906 7.33846 10.8987 7.97369 9.67351C8.70819 9.24601 9.30868 8.59954 9.8794 7.91137C9.56178 9.62659 9.18461 11.6807 9.22431 13.2186C10.7032 16.915 13.9737 20.5383 15.8248 23.9791L17.3087 22.7123C15.8794 19.8084 14.4551 17.1652 12.6288 14.3604C12.733 13.9902 14.7777 5.83643 14.0184 5.3985C13.0159 5.86771 11.9886 5.71131 11.2243 4.99185ZM14.7926 8.04692C14.6387 8.97491 14.5295 9.87683 14.2963 10.7996C14.5196 11.0811 14.6685 11.347 15.006 11.5973C16.2963 12.3949 17.5866 12.9684 18.8769 13.5106L19.3335 11.9518L15.4873 9.99153C15.2739 9.33985 15.0953 8.67774 14.7926 8.04692ZM8.91166 14.8192C8.65856 16.1225 8.42531 17.4363 8.33598 18.8074C7.5469 20.4601 6.56427 21.4976 5.3335 22.7905L6.82233 24C7.96873 22.6966 9.29876 21.5497 10.1325 20.1525L10.8273 17.9316C10.0481 16.941 9.41786 15.9088 8.91166 14.8192Z" fill="#21C6B2"/>
</svg>
