<svg width="26" height="26" viewBox="0 0 26 26" fill="none" xmlns="http://www.w3.org/2000/svg">
<g clip-path="url(#clip0_621_713)">
<path fill-rule="evenodd" clip-rule="evenodd" d="M9.2755 0.5C7.711 0.5 6.42925 1.78375 6.42925 3.34825C6.42925 4.08625 6.722 4.75575 7.188 5.26375L4.851 9.98C4.7665 9.97225 4.68475 9.9545 4.59825 9.9545C3.03375 9.9545 1.75 11.2362 1.75 12.8007C1.75 14.3652 3.03375 15.649 4.59825 15.649C5.58825 15.649 6.46325 15.133 6.974 14.359L18.6415 16.043C18.9447 17.2887 20.0673 18.2265 21.4018 18.2265C22.9663 18.2265 24.25 16.945 24.25 15.3802C24.25 13.8647 23.0425 12.6207 21.545 12.544L20.0117 7.76075C20.6677 7.2375 21.0995 6.44175 21.0995 5.544C21.0995 3.9795 19.816 2.69525 18.2515 2.69525C17.2602 2.69525 16.3845 3.2115 15.8735 3.98725L12.0845 2.9525C11.8883 1.5745 10.7045 0.5 9.2755 0.5ZM9.2755 1.94275C10.0605 1.94275 10.683 2.56325 10.683 3.34825C10.683 4.13325 10.0605 4.754 9.2755 4.754C8.4905 4.754 7.872 4.133 7.872 3.34825C7.872 2.5635 8.4905 1.94275 9.2755 1.94275ZM18.2515 4.13825C19.0365 4.13825 19.6553 4.759 19.6553 5.544C19.6553 6.329 19.0365 6.949 18.2515 6.949C17.4665 6.949 16.8442 6.329 16.8442 5.544C16.8442 4.759 17.4667 4.13825 18.2515 4.13825ZM11.712 4.79675L15.4288 5.81425C15.5675 7.24925 16.7738 8.38525 18.2418 8.39025L19.7412 13.079C19.3537 13.3605 19.0485 13.7385 18.8398 14.1728L7.417 12.5245C7.34775 11.8345 7.041 11.2125 6.5645 10.7545L8.84225 6.15325C8.98475 6.17575 9.12675 6.19675 9.2755 6.19675C10.3103 6.19675 11.2127 5.63025 11.712 4.79675ZM4.59825 11.395C5.38325 11.395 6.00575 12.0157 6.00575 12.8007C6.00705 12.9859 5.97152 13.1695 5.90125 13.3409C5.83097 13.5122 5.72734 13.6679 5.59638 13.7988C5.46542 13.9297 5.30974 14.0333 5.13839 14.1036C4.96704 14.1738 4.78344 14.2093 4.59825 14.208C3.81325 14.208 3.19275 13.5855 3.19275 12.8007C3.19132 12.6158 3.22669 12.4323 3.29682 12.2612C3.36694 12.09 3.47041 11.9345 3.60121 11.8036C3.732 11.6728 3.88751 11.5693 4.05868 11.4992C4.22985 11.429 4.41327 11.3936 4.59825 11.395ZM21.4018 13.9733C22.1868 13.9733 22.8072 14.5955 22.8072 15.3802C22.8072 16.165 22.1868 16.7822 21.4018 16.7822C20.6168 16.7822 19.9942 16.1652 19.9942 15.3802C19.993 15.1951 20.0285 15.0115 20.0988 14.8402C20.1691 14.6689 20.2728 14.5133 20.4037 14.3824C20.5347 14.2514 20.6903 14.1479 20.8617 14.0776C21.033 14.0074 21.2166 13.9719 21.4018 13.9733ZM1.75 19.5V25.5H24.25V19.5H22.6825V23.974H20.7607V20.7935H19.1933V23.974H17.273V20.7935H15.706V23.974H13.7835V19.5H12.2163V23.974H10.2937V20.7935H8.727V23.974H6.80675V20.7935H5.23925V23.974H3.3175V19.5H1.75Z" fill="#641698"/>
</g>
<defs>
<clipPath id="clip0_621_713">
<rect width="25" height="25" fill="white" transform="translate(0.5 0.5)"/>
</clipPath>
</defs>
</svg>
