<svg width="16" height="16" viewBox="0 0 16 16" fill="none" xmlns="http://www.w3.org/2000/svg">
<g clip-path="url(#clip0_730_1583)">
<path d="M7.2069 0.99994C7.01937 0.812469 6.76506 0.707153 6.4999 0.707153C6.23474 0.707153 5.98043 0.812469 5.7929 0.99994L0.145899 6.64594C0.0520125 6.73983 -0.000732424 6.86716 -0.000732422 6.99994C-0.00073242 7.13272 0.0520125 7.26005 0.145899 7.35394C0.239786 7.44783 0.367123 7.50057 0.499899 7.50057C0.632675 7.50057 0.760013 7.44783 0.853899 7.35394L0.999899 7.20694V12.4999C0.999899 12.8978 1.15793 13.2793 1.43924 13.5606C1.72054 13.8419 2.10207 13.9999 2.4999 13.9999H3.0499C3.01648 13.8354 2.99973 13.6679 2.9999 13.4999V9.41494C2.76103 9.33041 2.54747 9.18675 2.37914 8.99736C2.2108 8.80797 2.09319 8.57903 2.03728 8.33189C1.98136 8.08475 1.98896 7.82748 2.05936 7.58407C2.12977 7.34067 2.26068 7.11906 2.4399 6.93994L7.7929 1.58594L7.2069 0.99994Z" fill="#21C6B2"/>
<path d="M8.7929 1.99994C8.98043 1.81247 9.23473 1.70715 9.4999 1.70715C9.76506 1.70715 10.0194 1.81247 10.2069 1.99994L11.9999 3.79294V2.49994C11.9999 2.36733 12.0526 2.24015 12.1463 2.14639C12.2401 2.05262 12.3673 1.99994 12.4999 1.99994H13.4999C13.6325 1.99994 13.7597 2.05262 13.8535 2.14639C13.9472 2.24015 13.9999 2.36733 13.9999 2.49994V5.79294L15.8539 7.64594C15.9478 7.73983 16.0005 7.86716 16.0005 7.99994C16.0005 8.13272 15.9478 8.26005 15.8539 8.35394C15.76 8.44783 15.6327 8.50057 15.4999 8.50057C15.3671 8.50057 15.2398 8.44783 15.1459 8.35394L14.9999 8.20694V13.4999C14.9999 13.8978 14.8419 14.2793 14.5606 14.5606C14.2793 14.8419 13.8977 14.9999 13.4999 14.9999H5.4999C5.10207 14.9999 4.72054 14.8419 4.43924 14.5606C4.15793 14.2793 3.9999 13.8978 3.9999 13.4999V8.20694L3.8539 8.35394C3.80741 8.40043 3.75222 8.4373 3.69148 8.46246C3.63074 8.48762 3.56564 8.50057 3.4999 8.50057C3.43416 8.50057 3.36906 8.48762 3.30832 8.46246C3.24758 8.4373 3.19239 8.40043 3.1459 8.35394C3.09941 8.30745 3.06254 8.25226 3.03738 8.19152C3.01222 8.13078 2.99927 8.06568 2.99927 7.99994C2.99927 7.9342 3.01222 7.8691 3.03738 7.80836C3.06254 7.74762 3.09941 7.69243 3.1459 7.64594L8.7929 1.99994Z" fill="#21C6B2"/>
</g>
<defs>
<clipPath id="clip0_730_1583">
<rect width="16" height="16" fill="white"/>
</clipPath>
</defs>
</svg>
