<svg width="27" height="26" viewBox="0 0 27 26" fill="none" xmlns="http://www.w3.org/2000/svg">
<path d="M0.782715 4.30811C0.782789 3.87738 1.29105 3.64877 1.61377 3.93408L9.69092 11.0737C9.91344 11.2706 9.91611 11.6175 9.69678 11.8179L1.61963 19.1938C1.29878 19.4864 0.783017 19.2589 0.782715 18.8247V4.30811Z" stroke="#45166E"/>
<path d="M12.5335 14.1718L2.25226 23.2963C1.56423 23.9069 1.99613 25.0442 2.91604 25.0442L22.5439 25.0441C23.4406 25.0441 23.8841 23.955 23.2424 23.3286L13.8958 14.2042C13.5204 13.8378 12.9258 13.8237 12.5335 14.1718Z" fill="#3B0C76"/>
<path d="M2.96826 1.45581H25.4321C25.7082 1.45594 25.9321 1.67975 25.9321 1.95581V21.3748C25.9321 21.8029 25.4289 22.0327 25.105 21.7527L2.64111 2.33374C2.29142 2.03081 2.50552 1.45608 2.96826 1.45581Z" stroke="#8E44F7"/>
</svg>
