<svg width="30" height="30" viewBox="0 0 30 30" fill="none" xmlns="http://www.w3.org/2000/svg">
<path d="M15 20.625H28.125V22.5H15V20.625Z" fill="#734199"/>
<path d="M8.4375 18.75H4.6875C4.16973 18.75 3.75 19.1697 3.75 19.6875V23.4375C3.75 23.9553 4.16973 24.375 4.6875 24.375H8.4375C8.95527 24.375 9.375 23.9553 9.375 23.4375V19.6875C9.375 19.1697 8.95527 18.75 8.4375 18.75Z" fill="#734199"/>
<path d="M15 7.50005H28.125V9.37505H15V7.50005ZM8.90623 11.25H4.21873C4.1388 11.25 4.06019 11.2296 3.99038 11.1907C3.92058 11.1517 3.86189 11.0956 3.8199 11.0276C3.7779 10.9595 3.754 10.8819 3.75046 10.8021C3.74692 10.7222 3.76386 10.6428 3.79967 10.5713L6.14342 5.86317C6.18661 5.79051 6.24795 5.73033 6.32142 5.68853C6.39488 5.64673 6.47796 5.62476 6.56248 5.62476C6.64701 5.62476 6.73008 5.64673 6.80355 5.68853C6.87702 5.73033 6.93836 5.79051 6.98155 5.86317L9.3253 10.5722C9.36089 10.6437 9.37766 10.723 9.37401 10.8027C9.37036 10.8824 9.34642 10.9599 9.30445 11.0278C9.26249 11.0957 9.20388 11.1517 9.13419 11.1906C9.06451 11.2295 8.98604 11.25 8.90623 11.25Z" fill="#734199"/>
</svg>
