<svg width="20" height="20" viewBox="0 0 20 20" fill="none" xmlns="http://www.w3.org/2000/svg">
<g clip-path="url(#clip0_2389_13207)">
<path d="M9.16683 18.333V15.833C9.16683 15.3728 9.53993 14.9997 10.0002 14.9997C10.4604 14.9997 10.8335 15.3728 10.8335 15.833V18.333C10.8335 18.7932 10.4604 19.1663 10.0002 19.1663C9.53993 19.1663 9.16683 18.7932 9.16683 18.333ZM4.16683 9.16634C4.62707 9.16634 5.00016 9.53944 5.00016 9.99967C5.00016 10.4599 4.62707 10.833 4.16683 10.833H1.66683C1.20659 10.833 0.833496 10.4599 0.833496 9.99967C0.833496 9.53944 1.20659 9.16634 1.66683 9.16634H4.16683ZM18.3335 9.16634C18.7937 9.16634 19.1668 9.53944 19.1668 9.99967C19.1668 10.4599 18.7937 10.833 18.3335 10.833H15.8335C15.3733 10.833 15.0002 10.4599 15.0002 9.99967C15.0002 9.53944 15.3733 9.16634 15.8335 9.16634H18.3335ZM9.16683 4.16634V1.66634C9.16683 1.2061 9.53993 0.833008 10.0002 0.833008C10.4604 0.833008 10.8335 1.2061 10.8335 1.66634V4.16634C10.8335 4.62658 10.4604 4.99967 10.0002 4.99967C9.53993 4.99967 9.16683 4.62658 9.16683 4.16634Z" fill="white"/>
<path d="M15.0002 9.99967C15.0002 7.23825 12.7616 4.99967 10.0002 4.99967C7.23874 4.99967 5.00016 7.23825 5.00016 9.99967C5.00016 12.7611 7.23874 14.9997 10.0002 14.9997C12.7616 14.9997 15.0002 12.7611 15.0002 9.99967ZM16.6668 9.99967C16.6668 13.6816 13.6821 16.6663 10.0002 16.6663C6.31826 16.6663 3.3335 13.6816 3.3335 9.99967C3.3335 6.31778 6.31826 3.33301 10.0002 3.33301C13.6821 3.33301 16.6668 6.31778 16.6668 9.99967Z" fill="white"/>
</g>
<defs>
<clipPath id="clip0_2389_13207">
<rect width="20" height="20" fill="white"/>
</clipPath>
</defs>
</svg>
