<svg width="18" height="20" viewBox="0 0 18 20" fill="none" xmlns="http://www.w3.org/2000/svg">
<g clip-path="url(#clip0_730_1594)">
<path d="M11.5732 13.8575C11.5228 13.1574 11.5086 12.455 11.5306 11.7533L11.5298 11.7842C12.1453 11.134 12.5293 10.2926 12.6205 9.39417L12.6221 9.37667C12.8995 9.35333 13.3372 9.07833 13.4648 7.98833C13.503 7.80061 13.4884 7.60571 13.4225 7.42611C13.3566 7.24652 13.2422 7.08955 13.0925 6.97333L13.0901 6.97167C13.5417 5.58833 14.4794 1.30833 11.3547 0.866667C11.0332 0.291667 10.2101 0 9.13991 0C4.85836 0.08 4.34209 3.2925 5.27809 6.97167C5.1268 7.08862 5.01142 7.2471 4.94547 7.42852C4.87953 7.60993 4.86578 7.80674 4.90582 7.99583L4.905 7.98917C5.03591 9.0775 5.47036 9.35417 5.74773 9.3775C5.84514 10.2859 6.24133 11.1341 6.87191 11.7842C6.89213 12.4981 6.87629 13.2127 6.82445 13.925L6.82855 13.8575C5.97927 16.1775 0.261818 15.5258 0 20H18.3747C18.1113 15.5258 12.42 16.1775 11.5724 13.8575H11.5732Z" fill="#F5B942"/>
</g>
<defs>
<clipPath id="clip0_730_1594">
<rect width="18" height="20" fill="white"/>
</clipPath>
</defs>
</svg>
