<svg width="20" height="20" viewBox="0 0 20 20" fill="none" xmlns="http://www.w3.org/2000/svg">
<path d="M12.2668 1.66675C13.1983 1.66663 14.1029 1.97864 14.8363 2.55294C15.5697 3.12725 16.0894 3.93073 16.3126 4.83508L16.3535 5.01591L17.5201 10.8492C17.9335 12.9176 16.746 14.8742 14.9035 15.5684L14.7285 15.6292L16.3335 16.8334C16.5032 16.9605 16.6181 17.1476 16.6547 17.3564C16.6914 17.5653 16.647 17.7803 16.5307 17.9576C16.4144 18.1349 16.2348 18.2612 16.0286 18.3107C15.8225 18.3603 15.6051 18.3293 15.421 18.2242L15.3335 18.1667L12.2226 15.8334H7.77762L4.66678 18.1667C4.49726 18.2938 4.28569 18.3516 4.0751 18.3282C3.86452 18.3049 3.67074 18.2022 3.53317 18.041C3.3956 17.8799 3.32457 17.6724 3.33453 17.4608C3.34449 17.2492 3.43469 17.0493 3.58678 16.9017L3.66678 16.8334L5.27178 15.6292C3.38845 15.0167 2.13178 13.1034 2.44678 11.0434L2.48012 10.8492L3.64678 5.01591C3.82951 4.10271 4.31292 3.27704 5.01983 2.67073C5.72674 2.06442 6.6164 1.71242 7.54678 1.67091L7.73345 1.66675H12.2685H12.2668ZM6.87512 11.0417C6.59885 11.0417 6.3339 11.1515 6.13855 11.3468C5.9432 11.5422 5.83345 11.8071 5.83345 12.0834C5.83345 12.3597 5.9432 12.6246 6.13855 12.82C6.3339 13.0153 6.59885 13.1251 6.87512 13.1251C7.15139 13.1251 7.41634 13.0153 7.61169 12.82C7.80704 12.6246 7.91678 12.3597 7.91678 12.0834C7.91678 11.8071 7.80704 11.5422 7.61169 11.3468C7.41634 11.1515 7.15139 11.0417 6.87512 11.0417ZM13.1251 11.0417C12.8489 11.0417 12.5839 11.1515 12.3885 11.3468C12.1932 11.5422 12.0835 11.8071 12.0835 12.0834C12.0835 12.3597 12.1932 12.6246 12.3885 12.82C12.5839 13.0153 12.8489 13.1251 13.1251 13.1251C13.4014 13.1251 13.6663 13.0153 13.8617 12.82C14.057 12.6246 14.1668 12.3597 14.1668 12.0834C14.1668 11.8071 14.057 11.5422 13.8617 11.3468C13.6663 11.1515 13.4014 11.0417 13.1251 11.0417ZM12.1751 4.16675H7.82512C7.5464 4.16678 7.27569 4.25996 7.056 4.43148C6.83631 4.603 6.68025 4.84303 6.61262 5.11341L5.98762 7.61341C5.94152 7.7977 5.93803 7.99007 5.97741 8.1759C6.0168 8.36173 6.09802 8.53615 6.2149 8.68589C6.33179 8.83564 6.48127 8.95677 6.65198 9.04009C6.8227 9.12341 7.01016 9.16673 7.20012 9.16675H12.8001C12.9901 9.16673 13.1775 9.12341 13.3483 9.04009C13.519 8.95677 13.6684 8.83564 13.7853 8.68589C13.9022 8.53615 13.9834 8.36173 14.0228 8.1759C14.0622 7.99007 14.0587 7.7977 14.0126 7.61341L13.3876 5.11341C13.3199 4.84289 13.1638 4.60276 12.9439 4.43122C12.724 4.25969 12.454 4.16659 12.1751 4.16675ZM11.8501 5.83341L12.2668 7.50008H7.73345L8.15012 5.83341H11.8501Z" fill="#8E44F7"/>
</svg>
