<svg width="28" height="26" viewBox="0 0 28 26" fill="none" xmlns="http://www.w3.org/2000/svg">
<path d="M28 17.4395H19.9883C19.1002 22.0299 15.0053 25.4998 10.085 25.5C4.51554 25.4999 0 21.0546 0 15.5703C0.000160262 10.0862 4.51564 5.64074 10.085 5.64062C10.3244 5.64063 10.5617 5.65083 10.7969 5.66699V0.5H28V17.4395ZM10.085 7.33105C5.46362 7.33117 1.71696 11.0197 1.7168 15.5703C1.7168 20.1211 5.46352 23.8104 10.085 23.8105C14.0532 23.8104 17.3735 21.0894 18.2334 17.4395H10.7969V7.3623C10.5621 7.34282 10.3248 7.33106 10.085 7.33105ZM12.5127 5.93164C13.797 6.24429 14.9832 6.79971 16.0205 7.54492C16.0372 7.55693 16.0546 7.56797 16.0713 7.58008C16.1707 7.65244 16.2677 7.72788 16.3643 7.80371C16.3902 7.82405 16.4167 7.84367 16.4424 7.86426C16.6572 8.03633 16.8638 8.21764 17.0635 8.40625C17.0911 8.43234 17.1192 8.45798 17.1465 8.48438C17.2182 8.55367 17.2878 8.62492 17.3574 8.69629C17.3999 8.7398 17.4427 8.78288 17.4844 8.82715C17.5501 8.89701 17.6141 8.96833 17.6777 9.04004C17.716 9.08316 17.7544 9.12615 17.792 9.16992C17.8539 9.24209 17.9138 9.31575 17.9736 9.38965C18.015 9.44079 18.0563 9.49199 18.0967 9.54395C18.148 9.61002 18.1984 9.67677 18.248 9.74414C18.2919 9.80361 18.3354 9.86337 18.3779 9.92383C18.4267 9.99317 18.4745 10.0632 18.5215 10.1338C18.5602 10.1919 18.5982 10.2506 18.6357 10.3096C18.6828 10.3836 18.7293 10.4579 18.7744 10.5332C18.8101 10.5928 18.8454 10.6525 18.8799 10.7129C18.9232 10.7888 18.9655 10.8653 19.0068 10.9424C19.0412 11.0064 19.0745 11.0709 19.1074 11.1357C19.1431 11.2059 19.1779 11.2765 19.2119 11.3477C19.2504 11.428 19.2869 11.5093 19.3232 11.5908C19.3498 11.6505 19.376 11.7103 19.4014 11.7705C19.4384 11.8584 19.4743 11.9469 19.5088 12.0361C19.5319 12.0959 19.5552 12.1555 19.5771 12.2158C19.6061 12.2953 19.6332 12.3756 19.6602 12.4561C19.686 12.5333 19.7123 12.6104 19.7363 12.6885C19.7584 12.7602 19.7774 12.8329 19.7979 12.9053C19.818 12.9768 19.8398 13.048 19.8584 13.1201C19.8847 13.2222 19.9076 13.3254 19.9307 13.4287C19.9433 13.4853 19.9571 13.5417 19.9688 13.5986C19.9898 13.7015 20.0076 13.8052 20.0254 13.9092C20.0357 13.9693 20.0475 14.0293 20.0566 14.0898C20.0733 14.1996 20.0866 14.31 20.0996 14.4209C20.1053 14.4697 20.1132 14.5184 20.1182 14.5674C20.13 14.6836 20.1368 14.8006 20.1445 14.918C20.1479 14.9697 20.1536 15.0213 20.1562 15.0732C20.1645 15.2382 20.1689 15.4043 20.1689 15.5713C20.1689 15.6307 20.1661 15.6899 20.165 15.749H26.2832V2.18945H12.5127V5.93164Z" fill="#641698"/>
</svg>
