<svg width="21" height="20" viewBox="0 0 21 20" fill="none" xmlns="http://www.w3.org/2000/svg">
<path d="M10.5 2.91675C10.8315 2.91675 11.1495 3.04844 11.3839 3.28286C11.6183 3.51729 11.75 3.83523 11.75 4.16675V8.75008H16.3334C16.6649 8.75008 16.9828 8.88178 17.2172 9.1162C17.4517 9.35062 17.5834 9.66856 17.5834 10.0001C17.5834 10.3316 17.4517 10.6495 17.2172 10.884C16.9828 11.1184 16.6649 11.2501 16.3334 11.2501H11.75V15.8334C11.75 16.1649 11.6183 16.4829 11.3839 16.7173C11.1495 16.9517 10.8315 17.0834 10.5 17.0834C10.1685 17.0834 9.85056 16.9517 9.61614 16.7173C9.38172 16.4829 9.25002 16.1649 9.25002 15.8334V11.2501H4.66669C4.33517 11.2501 4.01722 11.1184 3.7828 10.884C3.54838 10.6495 3.41669 10.3316 3.41669 10.0001C3.41669 9.66856 3.54838 9.35062 3.7828 9.1162C4.01722 8.88178 4.33517 8.75008 4.66669 8.75008H9.25002V4.16675C9.25002 3.83523 9.38172 3.51729 9.61614 3.28286C9.85056 3.04844 10.1685 2.91675 10.5 2.91675Z" fill="#8E44F7"/>
</svg>
