<svg width="26" height="36" viewBox="0 0 26 36" fill="none" xmlns="http://www.w3.org/2000/svg">
<path d="M13 35.5481L12.2308 34.6827C11.75 34.2019 0.5 20.9327 0.5 12.9519C0.5 6.02883 6.07692 0.451904 13 0.451904C19.9231 0.451904 25.5 6.02883 25.5 12.9519C25.5 20.9327 14.25 34.2019 13.7692 34.7788L13 35.5481ZM13 2.37498C7.13462 2.37498 2.42308 7.08652 2.42308 12.9519C2.42308 19.1057 10.5 29.4904 13 32.5673C15.5 29.4904 23.5769 19.1057 23.5769 12.9519C23.5769 7.08652 18.8654 2.37498 13 2.37498Z" fill="#8E44F7"/>
<path d="M13 14.1162C10.9697 14.1162 9.37451 12.5689 9.37451 10.5995C9.37451 8.63012 10.9697 7.08276 13 7.08276C15.0303 7.08276 16.6255 8.63012 16.6255 10.5995C16.6255 12.5689 15.0303 14.1162 13 14.1162ZM13 8.48945C11.7673 8.48945 10.8247 9.4038 10.8247 10.5995C10.8247 11.7952 11.7673 12.7095 13 12.7095C14.2327 12.7095 15.1753 11.7952 15.1753 10.5995C15.1753 9.4038 14.2327 8.48945 13 8.48945Z" fill="#8E44F7"/>
<rect x="10.2511" y="15.9817" width="5.49751" height="8.7153" fill="#8E44F7"/>
</svg>
