<svg width="24" height="24" viewBox="0 0 24 24" fill="none" xmlns="http://www.w3.org/2000/svg">
<rect width="24" height="24" rx="4" fill="white"/>
<path d="M22.912 6.17134C22.8004 5.90676 22.5869 5.6965 22.3182 5.58662C22.186 5.53114 22.044 5.50171 21.9003 5.5H16.4019C16.1103 5.5 15.8306 5.61408 15.6243 5.81715C15.4181 6.02021 15.3022 6.29563 15.3022 6.58281C15.3022 6.86999 15.4181 7.14541 15.6243 7.34847C15.8306 7.55154 16.1103 7.66562 16.4019 7.66562H19.2501L13.1029 13.7185L9.48492 10.1453C9.38269 10.0438 9.26106 9.96321 9.12706 9.90824C8.99305 9.85327 8.84932 9.82496 8.70414 9.82496C8.55897 9.82496 8.41524 9.85327 8.28123 9.90824C8.14723 9.96321 8.0256 10.0438 7.92337 10.1453L1.32528 16.6421C1.22221 16.7428 1.1404 16.8625 1.08457 16.9945C1.02874 17.1264 1 17.268 1 17.4109C1 17.5539 1.02874 17.6954 1.08457 17.8273C1.1404 17.9593 1.22221 18.079 1.32528 18.1797C1.42751 18.2812 1.54914 18.3618 1.68315 18.4167C1.81715 18.4717 1.96089 18.5 2.10606 18.5C2.25123 18.5 2.39496 18.4717 2.52897 18.4167C2.66298 18.3618 2.7846 18.2812 2.88683 18.1797L8.70414 12.4408L12.3221 16.0141C12.4243 16.1156 12.546 16.1961 12.68 16.2511C12.814 16.3061 12.9577 16.3344 13.1029 16.3344C13.248 16.3344 13.3918 16.3061 13.5258 16.2511C13.6598 16.1961 13.7814 16.1156 13.8836 16.0141L20.8006 9.19238V11.9969C20.8006 12.284 20.9165 12.5595 21.1227 12.7625C21.329 12.9656 21.6087 13.0797 21.9003 13.0797C22.192 13.0797 22.4717 12.9656 22.6779 12.7625C22.8841 12.5595 23 12.284 23 11.9969V6.58281C22.9983 6.44131 22.9684 6.30152 22.912 6.17134Z" fill="#16D26B"/>
</svg>
