<svg width="20" height="20" viewBox="0 0 20 20" fill="none" xmlns="http://www.w3.org/2000/svg">
<path d="M10.0002 1.66675C6.66683 1.66675 3.3335 2.08341 3.3335 5.00008V12.9167C3.3335 13.6903 3.64079 14.4322 4.18777 14.9791C4.73475 15.5261 5.47661 15.8334 6.25016 15.8334L5.00016 17.0834V17.5001H6.8585L8.52516 15.8334H11.6668L13.3335 17.5001H15.0002V17.0834L13.7502 15.8334C14.5237 15.8334 15.2656 15.5261 15.8126 14.9791C16.3595 14.4322 16.6668 13.6903 16.6668 12.9167V5.00008C16.6668 2.08341 13.6835 1.66675 10.0002 1.66675ZM6.25016 14.1667C5.91864 14.1667 5.6007 14.0351 5.36628 13.8006C5.13186 13.5662 5.00016 13.2483 5.00016 12.9167C5.00016 12.5852 5.13186 12.2673 5.36628 12.0329C5.6007 11.7984 5.91864 11.6667 6.25016 11.6667C6.58168 11.6667 6.89963 11.7984 7.13405 12.0329C7.36847 12.2673 7.50016 12.5852 7.50016 12.9167C7.50016 13.2483 7.36847 13.5662 7.13405 13.8006C6.89963 14.0351 6.58168 14.1667 6.25016 14.1667ZM9.16683 8.33341H5.00016V5.00008H9.16683V8.33341ZM10.8335 8.33341V5.00008H15.0002V8.33341H10.8335ZM13.7502 14.1667C13.4186 14.1667 13.1007 14.0351 12.8663 13.8006C12.6319 13.5662 12.5002 13.2483 12.5002 12.9167C12.5002 12.5852 12.6319 12.2673 12.8663 12.0329C13.1007 11.7984 13.4186 11.6667 13.7502 11.6667C14.0817 11.6667 14.3996 11.7984 14.634 12.0329C14.8685 12.2673 15.0002 12.5852 15.0002 12.9167C15.0002 13.2483 14.8685 13.5662 14.634 13.8006C14.3996 14.0351 14.0817 14.1667 13.7502 14.1667Z" fill="#8E44F7"/>
</svg>
