<svg width="21" height="20" viewBox="0 0 21 20" fill="none" xmlns="http://www.w3.org/2000/svg">
<path fill-rule="evenodd" clip-rule="evenodd" d="M5.97368 4.24061C5.81202 4.08447 5.5955 3.99808 5.37076 4.00003C5.14602 4.00199 4.93104 4.09213 4.77212 4.25105C4.6132 4.40997 4.52305 4.62495 4.5211 4.84969C4.51914 5.07443 4.60554 5.29095 4.76168 5.45261L9.29853 9.98947L4.76168 14.5263C4.67981 14.6054 4.61451 14.7 4.56959 14.8045C4.52467 14.9091 4.50102 15.0216 4.50003 15.1354C4.49904 15.2492 4.52073 15.3621 4.56383 15.4674C4.60693 15.5728 4.67057 15.6685 4.75105 15.7489C4.83153 15.8294 4.92723 15.8931 5.03257 15.9362C5.13791 15.9793 5.25078 16.001 5.36459 16C5.4784 15.999 5.59088 15.9753 5.69545 15.9304C5.80003 15.8855 5.89461 15.8202 5.97368 15.7383L10.5105 11.2015L15.0474 15.7383C15.209 15.8945 15.4256 15.9809 15.6503 15.9789C15.875 15.9769 16.09 15.8868 16.2489 15.7279C16.4079 15.569 16.498 15.354 16.5 15.1292C16.5019 14.9045 16.4155 14.688 16.2594 14.5263L11.7225 9.98947L16.2594 5.45261C16.4155 5.29095 16.5019 5.07443 16.5 4.84969C16.498 4.62495 16.4079 4.40997 16.2489 4.25105C16.09 4.09213 15.875 4.00199 15.6503 4.00003C15.4256 3.99808 15.209 4.08447 15.0474 4.24061L10.5105 8.77747L5.97368 4.24061Z" fill="white"/>
</svg>
