<svg width="30" height="20" viewBox="0 0 30 20" fill="none" xmlns="http://www.w3.org/2000/svg">
<g clip-path="url(#clip0_1623_21254)">
<path d="M17.3594 11.5625V11.5L16.9844 6.5C16.974 6.36458 16.9167 6.2474 16.8125 6.14844C16.7083 6.04948 16.5885 6 16.4531 6H13.5469C13.4115 6 13.2917 6.04948 13.1875 6.14844C13.0833 6.2474 13.026 6.36458 13.0156 6.5L12.6406 11.5V11.5625C12.6302 11.6875 12.6719 11.7917 12.7656 11.875C12.8594 11.9583 12.9688 12 13.0938 12H16.9062C17.0312 12 17.1406 11.9583 17.2344 11.875C17.3281 11.7917 17.3698 11.6875 17.3594 11.5625ZM29.2188 18.8594C29.2188 19.6198 28.9792 20 28.5 20H17.5C17.6354 20 17.75 19.9505 17.8438 19.8516C17.9375 19.7526 17.9792 19.6354 17.9688 19.5L17.6562 15.5C17.6458 15.3646 17.5885 15.2474 17.4844 15.1484C17.3802 15.0495 17.2604 15 17.125 15H12.875C12.7396 15 12.6198 15.0495 12.5156 15.1484C12.4115 15.2474 12.3542 15.3646 12.3438 15.5L12.0312 19.5C12.0208 19.6354 12.0625 19.7526 12.1562 19.8516C12.25 19.9505 12.3646 20 12.5 20H1.5C1.02083 20 0.78125 19.6198 0.78125 18.8594C0.78125 18.2969 0.916667 17.6927 1.1875 17.0469L7.70312 0.734375C7.78646 0.536458 7.92188 0.364583 8.10938 0.21875C8.29688 0.0729167 8.49479 0 8.70312 0H14C13.8646 0 13.7448 0.0494792 13.6406 0.148438C13.5365 0.247396 13.4792 0.364583 13.4688 0.5L13.2344 3.5C13.224 3.64583 13.2656 3.76562 13.3594 3.85938C13.4531 3.95312 13.5677 4 13.7031 4H16.2969C16.4323 4 16.5469 3.95312 16.6406 3.85938C16.7344 3.76562 16.776 3.64583 16.7656 3.5L16.5312 0.5C16.5208 0.364583 16.4635 0.247396 16.3594 0.148438C16.2552 0.0494792 16.1354 0 16 0H21.2969C21.5052 0 21.7031 0.0729167 21.8906 0.21875C22.0781 0.364583 22.2135 0.536458 22.2969 0.734375L28.8125 17.0469C29.0833 17.6927 29.2188 18.2969 29.2188 18.8594Z" fill="#783AAE"/>
</g>
<defs>
<clipPath id="clip0_1623_21254">
<rect width="29" height="20" fill="white" transform="translate(0.5)"/>
</clipPath>
</defs>
</svg>
