<svg width="24" height="24" viewBox="0 0 24 24" fill="none" xmlns="http://www.w3.org/2000/svg">
<path d="M8.12793 2.5C8.88513 2.50024 9.55356 3.06161 9.77637 3.88379L10.3516 6.00684C10.3733 6.00339 10.3953 6.00002 10.418 6H20.5L20.5557 6.00391C20.6831 6.02067 20.7969 6.09454 20.8623 6.20605L21.8096 7.82422C22.5003 8.08024 22.9998 8.81739 23 9.6875V19.54C22.9998 20.6225 22.2272 21.5 21.2744 21.5H2.72559C1.77275 21.5 1.0002 20.6225 1 19.54V4.45996C1.00016 3.37748 1.77273 2.50001 2.72559 2.5H8.12793ZM2.72559 19.54H21.2744V9.6875H20.2959V14.7812C20.2959 15.0023 20.1764 15.2068 19.9824 15.3174C19.7883 15.428 19.5486 15.428 19.3545 15.3174L17.1475 14.0596L14.9414 15.3174C14.7473 15.428 14.5076 15.428 14.3135 15.3174C14.1195 15.2068 14 15.0023 14 14.7812V9.6875H10.8184C10.061 9.6875 9.39084 9.127 9.16797 8.30469L8.12793 4.45996H2.72559V19.54ZM10.8184 7.72754H20.7871L20.2588 6.8252H10.5742L10.8184 7.72754Z" fill="white"/>
</svg>
