<svg width="21" height="20" viewBox="0 0 21 20" fill="none" xmlns="http://www.w3.org/2000/svg">
<path d="M10.4998 2.91699C10.8314 2.91699 11.1493 3.04869 11.3837 3.28311C11.6181 3.51753 11.7498 3.83547 11.7498 4.16699V8.75033H16.3332C16.6647 8.75033 16.9826 8.88202 17.2171 9.11644C17.4515 9.35086 17.5832 9.66881 17.5832 10.0003C17.5832 10.3318 17.4515 10.6498 17.2171 10.8842C16.9826 11.1186 16.6647 11.2503 16.3332 11.2503H11.7498V15.8337C11.7498 16.1652 11.6181 16.4831 11.3837 16.7175C11.1493 16.952 10.8314 17.0837 10.4998 17.0837C10.1683 17.0837 9.85037 16.952 9.61595 16.7175C9.38153 16.4831 9.24984 16.1652 9.24984 15.8337V11.2503H4.6665C4.33498 11.2503 4.01704 11.1186 3.78262 10.8842C3.5482 10.6498 3.4165 10.3318 3.4165 10.0003C3.4165 9.66881 3.5482 9.35086 3.78262 9.11644C4.01704 8.88202 4.33498 8.75033 4.6665 8.75033H9.24984V4.16699C9.24984 3.83547 9.38153 3.51753 9.61595 3.28311C9.85037 3.04869 10.1683 2.91699 10.4998 2.91699Z" fill="white"/>
</svg>
