<svg width="24" height="24" viewBox="0 0 24 24" fill="none" xmlns="http://www.w3.org/2000/svg">
<path d="M6 19C6 18.7348 5.89457 18.4805 5.70703 18.293C5.51949 18.1054 5.26522 18 5 18C4.73478 18 4.48051 18.1054 4.29297 18.293C4.10543 18.4805 4 18.7348 4 19C4 19.2652 4.10543 19.5195 4.29297 19.707C4.48051 19.8946 4.73478 20 5 20C5.26522 20 5.51949 19.8946 5.70703 19.707C5.89457 19.5195 6 19.2652 6 19ZM19 15.5C19 14.837 18.7364 14.2013 18.2676 13.7324C17.8573 13.3222 17.3194 13.0695 16.7471 13.0127L16.5 13H8.5C7.30653 13 6.16227 12.5256 5.31836 11.6816C4.47445 10.8377 4 9.69347 4 8.5C4 7.30653 4.47445 6.16227 5.31836 5.31836C6.16227 4.47445 7.30653 4 8.5 4H13C13.5523 4 14 4.44772 14 5C14 5.55228 13.5523 6 13 6H8.5C7.83696 6 7.20126 6.26358 6.73242 6.73242C6.26358 7.20126 6 7.83696 6 8.5C6 9.16304 6.26358 9.79874 6.73242 10.2676C7.20126 10.7364 7.83696 11 8.5 11H16.5C17.6935 11 18.8377 11.4744 19.6816 12.3184C20.5256 13.1623 21 14.3065 21 15.5C21 16.6935 20.5256 17.8377 19.6816 18.6816C18.8377 19.5256 17.6935 20 16.5 20H11C10.4477 20 10 19.5523 10 19C10 18.4477 10.4477 18 11 18H16.5L16.7471 17.9873C17.3194 17.9305 17.8573 17.6778 18.2676 17.2676C18.7364 16.7987 19 16.163 19 15.5ZM20 5C20 4.73478 19.8946 4.48051 19.707 4.29297C19.5195 4.10543 19.2652 4 19 4C18.7348 4 18.4805 4.10543 18.293 4.29297C18.1054 4.48051 18 4.73478 18 5C18 5.26522 18.1054 5.51949 18.293 5.70703C18.4805 5.89457 18.7348 6 19 6L19.0986 5.99512C19.3276 5.97243 19.5429 5.87117 19.707 5.70703C19.8946 5.51949 20 5.26522 20 5ZM8 19C8 19.7957 7.6837 20.5585 7.12109 21.1211C6.55849 21.6837 5.79565 22 5 22C4.20435 22 3.44151 21.6837 2.87891 21.1211C2.3163 20.5585 2 19.7957 2 19C2 18.2043 2.3163 17.4415 2.87891 16.8789C3.44151 16.3163 4.20435 16 5 16C5.79565 16 6.55849 16.3163 7.12109 16.8789C7.6837 17.4415 8 18.2043 8 19ZM22 5C22 5.79565 21.6837 6.55849 21.1211 7.12109C20.5585 7.6837 19.7957 8 19 8C18.2043 8 17.4415 7.6837 16.8789 7.12109C16.3163 6.55849 16 5.79565 16 5C16 4.20435 16.3163 3.44151 16.8789 2.87891C17.4415 2.3163 18.2043 2 19 2C19.7957 2 20.5585 2.3163 21.1211 2.87891C21.6837 3.44151 22 4.20435 22 5Z" fill="#21C6B2"/>
</svg>
