<svg width="16" height="16" viewBox="0 0 16 16" fill="none" xmlns="http://www.w3.org/2000/svg">
<path fill-rule="evenodd" clip-rule="evenodd" d="M14.7277 6.28822C14.6811 6.28606 14.6344 6.28526 14.5877 6.28582H12.6397C11.0462 6.28582 9.6814 7.55059 9.6814 9.20016C9.6814 10.8497 11.0462 12.1145 12.6405 12.1145H14.5869C14.636 12.115 14.6826 12.114 14.7269 12.1113C15.0557 12.09 15.3656 11.95 15.599 11.7174C15.8323 11.4847 15.9733 11.1753 15.9957 10.8465C15.9989 10.7993 15.9989 10.7489 15.9989 10.7025V7.69779C15.9989 7.65139 15.9989 7.60099 15.9957 7.5538C15.9733 7.22518 15.8325 6.91584 15.5993 6.68322C15.3661 6.45061 15.0564 6.31054 14.7277 6.28902M12.4693 9.97775C12.8797 9.97775 13.2133 9.63056 13.2133 9.20097C13.2133 8.77137 12.8797 8.42418 12.4693 8.42418C12.059 8.42418 11.7262 8.77137 11.7262 9.20097C11.7262 9.63056 12.0582 9.97775 12.4693 9.97775Z" fill="#16D26B"/>
<path fill-rule="evenodd" clip-rule="evenodd" d="M14.5869 13.2799C14.6137 13.279 14.6404 13.2844 14.6647 13.2956C14.6891 13.3069 14.7104 13.3237 14.7271 13.3447C14.7438 13.3657 14.7552 13.3904 14.7606 13.4166C14.766 13.4429 14.7652 13.4701 14.7581 13.4959C14.6029 14.0495 14.3573 14.5215 13.9629 14.9183C13.3862 15.4999 12.6542 15.7583 11.7502 15.8807C10.8718 15.9999 9.75022 15.9999 8.33265 15.9999H6.70308C5.2863 15.9999 4.16392 15.9999 3.28554 15.8807C2.38156 15.7583 1.64957 15.4999 1.07278 14.9183C0.495991 14.3383 0.239996 13.5999 0.118398 12.6896C0 11.8032 0 10.672 0 9.24402V9.15602C0 7.72805 0 6.59607 0.118398 5.71129C0.239996 4.8001 0.495991 4.06412 1.07198 3.48093C1.64877 2.90014 2.38076 2.64094 3.28474 2.51934C4.16392 2.40015 5.2863 2.40015 6.70308 2.40015H8.33265C9.74942 2.40015 10.8718 2.40015 11.7502 2.51934C12.6542 2.64174 13.3862 2.90014 13.9629 3.48093C14.3573 3.87852 14.6029 4.35051 14.7581 4.9049C14.765 4.93073 14.7658 4.95781 14.7603 4.98397C14.7548 5.01014 14.7433 5.03466 14.7267 5.05558C14.71 5.0765 14.6887 5.09323 14.6645 5.10443C14.6402 5.11563 14.6136 5.121 14.5869 5.1201H12.6406C10.4534 5.1201 8.52624 6.86166 8.52624 9.20002C8.52624 11.5384 10.4542 13.2799 12.6414 13.2799H14.5869ZM2.89115 5.50889C2.81498 5.5092 2.73962 5.52452 2.66938 5.55396C2.59913 5.58339 2.53537 5.62638 2.48173 5.68046C2.4281 5.73454 2.38564 5.79866 2.35679 5.86914C2.32793 5.93963 2.31324 6.01511 2.31356 6.09128C2.31356 6.41367 2.57195 6.67447 2.89115 6.67447H5.97589C6.29589 6.67447 6.55428 6.41367 6.55428 6.09128C6.55471 5.93738 6.49403 5.78961 6.38559 5.68041C6.27714 5.57122 6.12979 5.50952 5.97589 5.50889H2.89115Z" fill="#16D26B"/>
<path d="M4.62134 1.61945L6.18771 0.465067C6.5965 0.163004 7.0914 0 7.59968 0C8.10797 0 8.60286 0.163004 9.01166 0.465067L10.5868 1.62585C9.92764 1.60025 9.19165 1.60025 8.38607 1.60025H6.6501C5.91251 1.60025 5.23493 1.60025 4.62134 1.61945Z" fill="#16D26B"/>
</svg>
